M48
;Layer_Color=9474304
;FILE_FORMAT=2:5
INCH,LZ
;TYPE=PLATED
T1F00S00C0.01200
%
T01
X0173933Y0295173
X0173932Y03012
X0173933Y0311877
X0190637
X0190637Y03012
X0190637Y0295173
X0207342
X0207341Y03012
X0207342Y0311877
X0224047
X0224046Y03012
X0224047Y0295173
X0240751Y0293598
X0240751Y03012
X0240751Y0311877
X02483Y0310699
Y0293994
X0240751Y0317904
X0240751Y0328582
X0240751Y0334609
X0240751Y0345287
X0240751Y0351314
X0240751Y0361992
X0240751Y0368018
X0240751Y0378696
X0240751Y0384723
X0240751Y0395401
X0240751Y0401426
X0240751Y0412104
X0240751Y041813
X02483Y0410927
Y0394222
Y0377518
Y0360813
Y0344108
Y0327403
X0224047Y0328582
X0224046Y0334609
X0224047Y0345287
X0224046Y0351314
X0224047Y0361992
X0224046Y0368018
X0224047Y0378696
X0224046Y0384723
X0224047Y0395401
X0224046Y0401426
X0224047Y0412104
X0224046Y041813
X0207341
X0207342Y0412104
X0207341Y0401426
X0207342Y0395401
X0207341Y0384723
X0207342Y0378696
X0207341Y0368018
X0207342Y0361992
X0207341Y0351314
X0207342Y0345287
X0207341Y0334609
X0207342Y0328582
X0207341Y0317904
X0190637
X0190637Y0328582
X0190637Y0334609
X0190637Y0345287
X0190637Y0351314
X0190637Y0361992
X0190637Y0368018
X0190637Y0378696
X0190637Y0384723
X0190637Y0395401
X0190637Y0401426
X0190637Y0412104
X0190637Y041813
X0173932
X0173933Y0412104
X0173932Y0401426
X0173933Y0395401
X0173932Y0384723
X0173933Y0378696
X0173932Y0368018
X0173933Y0361992
X0173932Y0351314
X0173933Y0345287
X0173932Y0334609
X0173933Y0328582
X0173932Y0317904
X0224046
X01635Y0425549
M30
