G04*
G04 #@! TF.GenerationSoftware,Altium Limited,Altium Designer,20.1.14 (287)*
G04*
G04 Layer_Physical_Order=1*
G04 Layer_Color=255*
%FSLAX25Y25*%
%MOIN*%
G70*
G04*
G04 #@! TF.SameCoordinates,EDD9B4B2-C76D-452E-86CE-AE9E56570F27*
G04*
G04*
G04 #@! TF.FilePolarity,Positive*
G04*
G01*
G75*
%ADD11C,0.00600*%
%ADD12C,0.02400*%
G36*
X248059Y422981D02*
X241238Y416161D01*
X240264Y416161D01*
X233443Y422981D01*
X233443Y423956D01*
X248059Y423956D01*
Y422981D01*
D02*
G37*
G36*
X231354D02*
X224534Y416161D01*
X223559Y416161D01*
X216739Y422981D01*
X216739Y423956D01*
X231354Y423956D01*
Y422981D01*
D02*
G37*
G36*
X214649D02*
X207829Y416161D01*
X206855Y416161D01*
X200034Y422981D01*
X200034Y423956D01*
X214649Y423956D01*
Y422981D01*
D02*
G37*
G36*
X197945D02*
X191124Y416161D01*
X190150Y416161D01*
X183329Y422981D01*
X183329Y423956D01*
X197945Y423956D01*
Y422981D01*
D02*
G37*
G36*
X181240D02*
X174419Y416161D01*
X173445Y416161D01*
X166624Y422981D01*
X166624Y423956D01*
X181240Y423956D01*
Y422981D01*
D02*
G37*
G36*
X172888Y415604D02*
Y414630D01*
X166068Y407809D01*
X165093Y407809D01*
X165093Y422425D01*
X166068Y422425D01*
X172888Y415604D01*
D02*
G37*
G36*
X249584Y407809D02*
X248610Y407809D01*
X241789Y414630D01*
X241789Y415604D01*
X248610Y422425D01*
X249584Y422425D01*
Y407809D01*
D02*
G37*
G36*
X239702Y415604D02*
Y414630D01*
X232881Y407809D01*
X231907Y407809D01*
X225086Y414630D01*
X225086Y415604D01*
X231907Y422425D01*
X232881Y422425D01*
X239702Y415604D01*
D02*
G37*
G36*
X189592D02*
Y414630D01*
X182771Y407809D01*
X181797Y407809D01*
X174976Y414630D01*
X174976Y415604D01*
X181797Y422425D01*
X182771Y422425D01*
X189592Y415604D01*
D02*
G37*
G36*
X222998Y415604D02*
Y414630D01*
X216178Y407809D01*
X215203Y407809D01*
X208383Y414630D01*
X208383Y415604D01*
X215203Y422425D01*
X216178Y422425D01*
X222998Y415604D01*
D02*
G37*
G36*
X206295D02*
Y414630D01*
X199474Y407809D01*
X198500Y407809D01*
X191679Y414630D01*
X191680Y415604D01*
X198500Y422425D01*
X199474Y422425D01*
X206295Y415604D01*
D02*
G37*
G36*
X248053Y407253D02*
Y406278D01*
X241233Y399458D01*
X240258Y399458D01*
X233438Y406278D01*
X233438Y407252D01*
X240258Y414073D01*
X241233Y414073D01*
X248053Y407253D01*
D02*
G37*
G36*
X231350Y407253D02*
Y406278D01*
X224529Y399458D01*
X223555Y399458D01*
X216734Y406278D01*
X216734Y407252D01*
X223555Y414073D01*
X224529Y414073D01*
X231350Y407253D01*
D02*
G37*
G36*
X214647D02*
Y406278D01*
X207826Y399458D01*
X206852Y399458D01*
X200031Y406278D01*
X200031Y407252D01*
X206852Y414073D01*
X207826Y414073D01*
X214647Y407253D01*
D02*
G37*
G36*
X197943D02*
Y406278D01*
X191123Y399458D01*
X190148Y399458D01*
X183328Y406278D01*
X183328Y407252D01*
X190148Y414073D01*
X191123Y414073D01*
X197943Y407253D01*
D02*
G37*
G36*
X181240D02*
Y406278D01*
X174419Y399458D01*
X173445Y399458D01*
X166624Y406278D01*
X166624Y407252D01*
X173445Y414073D01*
X174419Y414073D01*
X181240Y407253D01*
D02*
G37*
G36*
X239702Y398901D02*
Y397926D01*
X232881Y391106D01*
X231907Y391106D01*
X225086Y397926D01*
X225086Y398901D01*
X231907Y405721D01*
X232881Y405721D01*
X239702Y398901D01*
D02*
G37*
G36*
X222998D02*
Y397926D01*
X216178Y391106D01*
X215203Y391106D01*
X208383Y397926D01*
X208383Y398901D01*
X215203Y405721D01*
X216178Y405721D01*
X222998Y398901D01*
D02*
G37*
G36*
X206295D02*
Y397926D01*
X199474Y391106D01*
X198500Y391106D01*
X191679Y397926D01*
X191680Y398901D01*
X198500Y405721D01*
X199474Y405721D01*
X206295Y398901D01*
D02*
G37*
G36*
X189592Y398901D02*
Y397926D01*
X182771Y391106D01*
X181797Y391106D01*
X174976Y397926D01*
X174976Y398901D01*
X181797Y405721D01*
X182771Y405721D01*
X189592Y398901D01*
D02*
G37*
G36*
X172888Y398899D02*
Y397925D01*
X166068Y391105D01*
X165093Y391105D01*
X165093Y405720D01*
X166068Y405720D01*
X172888Y398899D01*
D02*
G37*
G36*
X249584Y391105D02*
X248610Y391105D01*
X241789Y397925D01*
X241789Y398899D01*
X248610Y405720D01*
X249584Y405720D01*
Y391105D01*
D02*
G37*
G36*
X231350Y390549D02*
Y389575D01*
X224529Y382754D01*
X223555Y382754D01*
X216734Y389575D01*
X216734Y390549D01*
X223555Y397370D01*
X224529D01*
X231350Y390549D01*
D02*
G37*
G36*
X214647D02*
Y389575D01*
X207826Y382754D01*
X206852Y382754D01*
X200031Y389575D01*
X200031Y390549D01*
X206852Y397370D01*
X207826D01*
X214647Y390549D01*
D02*
G37*
G36*
X248053Y390549D02*
Y389575D01*
X241233Y382754D01*
X240258Y382754D01*
X233438Y389575D01*
X233438Y390549D01*
X240258Y397370D01*
X241233Y397370D01*
X248053Y390549D01*
D02*
G37*
G36*
X197943D02*
Y389575D01*
X191123Y382754D01*
X190148Y382754D01*
X183328Y389575D01*
X183328Y390549D01*
X190148Y397370D01*
X191123Y397370D01*
X197943Y390549D01*
D02*
G37*
G36*
X181240D02*
Y389575D01*
X174419Y382754D01*
X173445Y382754D01*
X166624Y389575D01*
X166624Y390549D01*
X173445Y397370D01*
X174419Y397370D01*
X181240Y390549D01*
D02*
G37*
G36*
X222998Y382197D02*
Y381223D01*
X216178Y374403D01*
X215203Y374403D01*
X208383Y381223D01*
X208383Y382197D01*
X215203Y389018D01*
X216178Y389018D01*
X222998Y382197D01*
D02*
G37*
G36*
X239702D02*
Y381223D01*
X232881Y374403D01*
X231907Y374403D01*
X225086Y381223D01*
X225086Y382197D01*
X231907Y389018D01*
X232881D01*
X239702Y382197D01*
D02*
G37*
G36*
X206295D02*
Y381223D01*
X199474Y374403D01*
X198500Y374403D01*
X191679Y381223D01*
X191680Y382197D01*
X198500Y389018D01*
X199474D01*
X206295Y382197D01*
D02*
G37*
G36*
X189592D02*
Y381223D01*
X182771Y374403D01*
X181797Y374403D01*
X174976Y381223D01*
X174976Y382197D01*
X181797Y389018D01*
X182771D01*
X189592Y382197D01*
D02*
G37*
G36*
X172888Y382195D02*
Y381220D01*
X166068Y374400D01*
X165093Y374400D01*
X165093Y389015D01*
X166068Y389015D01*
X172888Y382195D01*
D02*
G37*
G36*
X249584Y374400D02*
X248610Y374400D01*
X241789Y381220D01*
X241789Y382195D01*
X248610Y389015D01*
X249584Y389015D01*
Y374400D01*
D02*
G37*
G36*
X248053Y373846D02*
Y372871D01*
X241233Y366051D01*
X240258Y366051D01*
X233438Y372871D01*
X233438Y373846D01*
X240258Y380666D01*
X241233D01*
X248053Y373846D01*
D02*
G37*
G36*
X231350D02*
Y372871D01*
X224529Y366051D01*
X223555Y366051D01*
X216734Y372871D01*
X216734Y373846D01*
X223555Y380666D01*
X224529D01*
X231350Y373846D01*
D02*
G37*
G36*
X214647D02*
Y372871D01*
X207826Y366051D01*
X206852Y366051D01*
X200031Y372871D01*
X200031Y373846D01*
X206852Y380666D01*
X207826D01*
X214647Y373846D01*
D02*
G37*
G36*
X197943D02*
Y372871D01*
X191123Y366051D01*
X190148Y366051D01*
X183328Y372871D01*
X183328Y373846D01*
X190148Y380666D01*
X191123D01*
X197943Y373846D01*
D02*
G37*
G36*
X181240D02*
Y372871D01*
X174419Y366051D01*
X173445Y366051D01*
X166624Y372871D01*
X166624Y373846D01*
X173445Y380666D01*
X174419Y380666D01*
X181240Y373846D01*
D02*
G37*
G36*
X239702Y365494D02*
Y364520D01*
X232881Y357699D01*
X231907Y357699D01*
X225086Y364520D01*
X225086Y365494D01*
X231907Y372315D01*
X232881Y372315D01*
X239702Y365494D01*
D02*
G37*
G36*
X222998Y365494D02*
Y364520D01*
X216178Y357699D01*
X215203Y357699D01*
X208383Y364520D01*
X208383Y365494D01*
X215203Y372315D01*
X216178D01*
X222998Y365494D01*
D02*
G37*
G36*
X206295Y365494D02*
Y364520D01*
X199474Y357699D01*
X198500Y357699D01*
X191679Y364520D01*
X191680Y365494D01*
X198500Y372315D01*
X199474Y372315D01*
X206295Y365494D01*
D02*
G37*
G36*
X189592Y365494D02*
Y364520D01*
X182771Y357699D01*
X181797Y357699D01*
X174976Y364520D01*
X174976Y365494D01*
X181797Y372315D01*
X182771D01*
X189592Y365494D01*
D02*
G37*
G36*
X172888Y365490D02*
Y364516D01*
X166068Y357695D01*
X165093Y357695D01*
X165093Y372310D01*
X166068Y372310D01*
X172888Y365490D01*
D02*
G37*
G36*
X249584Y357695D02*
X248610Y357695D01*
X241789Y364516D01*
X241789Y365490D01*
X248610Y372310D01*
X249584Y372310D01*
Y357695D01*
D02*
G37*
G36*
X248053Y357143D02*
Y356168D01*
X241233Y349348D01*
X240258Y349348D01*
X233438Y356168D01*
X233438Y357142D01*
X240258Y363963D01*
X241233Y363963D01*
X248053Y357143D01*
D02*
G37*
G36*
X231350D02*
Y356168D01*
X224529Y349348D01*
X223555Y349348D01*
X216734Y356168D01*
X216734Y357142D01*
X223555Y363963D01*
X224529Y363963D01*
X231350Y357143D01*
D02*
G37*
G36*
X214647D02*
Y356168D01*
X207826Y349348D01*
X206852Y349348D01*
X200031Y356168D01*
X200031Y357142D01*
X206852Y363963D01*
X207826Y363963D01*
X214647Y357143D01*
D02*
G37*
G36*
X197943D02*
Y356168D01*
X191123Y349348D01*
X190148Y349348D01*
X183328Y356168D01*
X183328Y357142D01*
X190148Y363963D01*
X191123Y363963D01*
X197943Y357143D01*
D02*
G37*
G36*
X181240D02*
Y356168D01*
X174419Y349348D01*
X173445Y349348D01*
X166624Y356168D01*
X166624Y357142D01*
X173445Y363963D01*
X174419Y363963D01*
X181240Y357143D01*
D02*
G37*
G36*
X222998Y348791D02*
Y347816D01*
X216178Y340996D01*
X215203Y340996D01*
X208383Y347816D01*
X208383Y348791D01*
X215203Y355611D01*
X216178Y355611D01*
X222998Y348791D01*
D02*
G37*
G36*
X189592D02*
Y347816D01*
X182771Y340996D01*
X181797Y340996D01*
X174976Y347816D01*
X174976Y348791D01*
X181797Y355611D01*
X182771Y355611D01*
X189592Y348791D01*
D02*
G37*
G36*
X239702Y348791D02*
Y347816D01*
X232881Y340996D01*
X231907Y340996D01*
X225086Y347816D01*
X225086Y348791D01*
X231907Y355611D01*
X232881Y355611D01*
X239702Y348791D01*
D02*
G37*
G36*
X206295D02*
Y347816D01*
X199474Y340996D01*
X198500Y340996D01*
X191679Y347816D01*
X191680Y348791D01*
X198500Y355611D01*
X199474Y355611D01*
X206295Y348791D01*
D02*
G37*
G36*
X172888Y348785D02*
Y347811D01*
X166068Y340990D01*
X165093Y340991D01*
X165093Y355606D01*
X166068Y355606D01*
X172888Y348785D01*
D02*
G37*
G36*
X249584Y340990D02*
X248610Y340990D01*
X241789Y347811D01*
X241789Y348785D01*
X248610Y355606D01*
X249584Y355606D01*
Y340990D01*
D02*
G37*
G36*
X181240Y340439D02*
Y339465D01*
X174419Y332644D01*
X173445Y332644D01*
X166624Y339465D01*
X166624Y340439D01*
X173445Y347260D01*
X174419Y347260D01*
X181240Y340439D01*
D02*
G37*
G36*
X248053Y340439D02*
Y339465D01*
X241233Y332644D01*
X240258Y332644D01*
X233438Y339465D01*
X233438Y340439D01*
X240258Y347260D01*
X241233Y347260D01*
X248053Y340439D01*
D02*
G37*
G36*
X231350D02*
Y339465D01*
X224529Y332644D01*
X223555Y332644D01*
X216734Y339465D01*
X216734Y340439D01*
X223555Y347260D01*
X224529Y347260D01*
X231350Y340439D01*
D02*
G37*
G36*
X214647D02*
Y339465D01*
X207826Y332644D01*
X206852Y332644D01*
X200031Y339465D01*
X200031Y340439D01*
X206852Y347260D01*
X207826Y347260D01*
X214647Y340439D01*
D02*
G37*
G36*
X197943D02*
Y339465D01*
X191123Y332644D01*
X190148Y332644D01*
X183328Y339465D01*
X183328Y340439D01*
X190148Y347260D01*
X191123Y347260D01*
X197943Y340439D01*
D02*
G37*
G36*
X239702Y332088D02*
Y331113D01*
X232881Y324293D01*
X231907Y324293D01*
X225086Y331113D01*
X225086Y332088D01*
X231907Y338908D01*
X232881Y338908D01*
X239702Y332088D01*
D02*
G37*
G36*
X206295D02*
Y331113D01*
X199474Y324293D01*
X198500Y324293D01*
X191679Y331113D01*
X191680Y332088D01*
X198500Y338908D01*
X199474Y338908D01*
X206295Y332088D01*
D02*
G37*
G36*
X189592D02*
Y331113D01*
X182771Y324293D01*
X181797Y324293D01*
X174976Y331113D01*
X174976Y332088D01*
X181797Y338908D01*
X182771Y338908D01*
X189592Y332088D01*
D02*
G37*
G36*
X222998Y332088D02*
Y331113D01*
X216178Y324293D01*
X215203Y324293D01*
X208383Y331113D01*
X208383Y332088D01*
X215203Y338908D01*
X216178Y338908D01*
X222998Y332088D01*
D02*
G37*
G36*
X172888Y332081D02*
Y331106D01*
X166068Y324286D01*
X165093Y324286D01*
X165093Y338901D01*
X166068Y338901D01*
X172888Y332081D01*
D02*
G37*
G36*
X249584Y324286D02*
X248610Y324286D01*
X241789Y331106D01*
X241789Y332081D01*
X248610Y338901D01*
X249584Y338901D01*
Y324286D01*
D02*
G37*
G36*
X248053Y323736D02*
Y322762D01*
X241233Y315941D01*
X240258Y315941D01*
X233438Y322762D01*
X233438Y323736D01*
X240258Y330557D01*
X241233D01*
X248053Y323736D01*
D02*
G37*
G36*
X197943D02*
Y322762D01*
X191123Y315941D01*
X190148Y315941D01*
X183328Y322762D01*
X183328Y323736D01*
X190148Y330557D01*
X191123D01*
X197943Y323736D01*
D02*
G37*
G36*
X181240D02*
Y322762D01*
X174419Y315941D01*
X173445Y315941D01*
X166624Y322762D01*
X166624Y323736D01*
X173445Y330557D01*
X174419D01*
X181240Y323736D01*
D02*
G37*
G36*
X231350Y323736D02*
Y322762D01*
X224529Y315941D01*
X223555Y315941D01*
X216734Y322762D01*
X216734Y323736D01*
X223555Y330556D01*
X224529Y330557D01*
X231350Y323736D01*
D02*
G37*
G36*
X214647D02*
Y322762D01*
X207826Y315941D01*
X206852Y315941D01*
X200031Y322762D01*
X200031Y323736D01*
X206852Y330556D01*
X207826Y330557D01*
X214647Y323736D01*
D02*
G37*
G36*
X189592Y315384D02*
Y314410D01*
X182771Y307589D01*
X181797Y307589D01*
X174976Y314410D01*
X174976Y315384D01*
X181797Y322205D01*
X182771Y322205D01*
X189592Y315384D01*
D02*
G37*
G36*
X239702D02*
Y314410D01*
X232881Y307589D01*
X231907Y307589D01*
X225086Y314410D01*
X225086Y315384D01*
X231907Y322205D01*
X232881D01*
X239702Y315384D01*
D02*
G37*
G36*
X222998D02*
Y314410D01*
X216178Y307589D01*
X215203Y307589D01*
X208383Y314410D01*
X208383Y315384D01*
X215203Y322205D01*
X216178D01*
X222998Y315384D01*
D02*
G37*
G36*
X206295D02*
Y314410D01*
X199474Y307589D01*
X198500Y307589D01*
X191679Y314410D01*
X191680Y315384D01*
X198500Y322205D01*
X199474D01*
X206295Y315384D01*
D02*
G37*
G36*
X172888Y315376D02*
Y314401D01*
X166068Y307581D01*
X165093Y307581D01*
X165093Y322196D01*
X166068Y322196D01*
X172888Y315376D01*
D02*
G37*
G36*
X249584Y307581D02*
X248610Y307581D01*
X241789Y314401D01*
X241789Y315376D01*
X248610Y322196D01*
X249584Y322196D01*
Y307581D01*
D02*
G37*
G36*
X231350Y307033D02*
Y306058D01*
X224529Y299238D01*
X223555Y299238D01*
X216734Y306058D01*
X216734Y307033D01*
X223555Y313853D01*
X224529D01*
X231350Y307033D01*
D02*
G37*
G36*
X214647D02*
Y306058D01*
X207826Y299238D01*
X206852Y299238D01*
X200031Y306058D01*
X200031Y307033D01*
X206852Y313853D01*
X207826D01*
X214647Y307033D01*
D02*
G37*
G36*
X197943D02*
Y306058D01*
X191123Y299238D01*
X190148Y299238D01*
X183328Y306058D01*
X183328Y307033D01*
X190148Y313853D01*
X191123D01*
X197943Y307033D01*
D02*
G37*
G36*
X181240D02*
Y306058D01*
X174419Y299238D01*
X173445Y299238D01*
X166624Y306058D01*
X166624Y307033D01*
X173445Y313853D01*
X174419D01*
X181240Y307033D01*
D02*
G37*
G36*
X248053D02*
Y306058D01*
X241233Y299238D01*
X240258Y299238D01*
X233438Y306058D01*
X233438Y307033D01*
X240258Y313853D01*
X241233Y313853D01*
X248053Y307033D01*
D02*
G37*
G36*
X239702Y298681D02*
Y297707D01*
X232881Y290886D01*
X231907Y290886D01*
X225086Y297707D01*
X225086Y298681D01*
X231907Y305502D01*
X232881D01*
X239702Y298681D01*
D02*
G37*
G36*
X222998Y298681D02*
Y297707D01*
X216178Y290886D01*
X215203Y290886D01*
X208383Y297707D01*
X208383Y298681D01*
X215203Y305502D01*
X216178Y305502D01*
X222998Y298681D01*
D02*
G37*
G36*
X206295D02*
Y297707D01*
X199474Y290886D01*
X198500Y290886D01*
X191679Y297707D01*
X191680Y298681D01*
X198500Y305502D01*
X199474Y305502D01*
X206295Y298681D01*
D02*
G37*
G36*
X189592Y298681D02*
Y297707D01*
X182771Y290886D01*
X181797Y290886D01*
X174976Y297707D01*
X174976Y298681D01*
X181797Y305502D01*
X182771D01*
X189592Y298681D01*
D02*
G37*
G36*
X172888Y298671D02*
Y297697D01*
X166068Y290876D01*
X165093Y290877D01*
X165093Y305492D01*
X166068Y305492D01*
X172888Y298671D01*
D02*
G37*
G36*
X249584Y290876D02*
X248610Y290876D01*
X241789Y297697D01*
X241789Y298671D01*
X248610Y305492D01*
X249584Y305492D01*
Y290876D01*
D02*
G37*
G36*
X248053Y290329D02*
Y289355D01*
X233438D01*
X233438Y290329D01*
X240258Y297150D01*
X241233Y297150D01*
X248053Y290329D01*
D02*
G37*
G36*
X231350D02*
Y289355D01*
X216734D01*
X216734Y290329D01*
X223555Y297150D01*
X224529Y297150D01*
X231350Y290329D01*
D02*
G37*
G36*
X214647Y290329D02*
Y289355D01*
X200031Y289355D01*
X200031Y290329D01*
X206852Y297150D01*
X207826Y297150D01*
X214647Y290329D01*
D02*
G37*
G36*
X197943Y290329D02*
Y289355D01*
X183328D01*
X183328Y290329D01*
X190148Y297150D01*
X191123Y297150D01*
X197943Y290329D01*
D02*
G37*
G36*
X181240D02*
Y289355D01*
X166624D01*
X166624Y290329D01*
X173445Y297150D01*
X174419Y297150D01*
X181240Y290329D01*
D02*
G37*
D11*
X167618Y298184D02*
X246583D01*
X167618Y314889D02*
X246583D01*
X167618Y331593D02*
X246583D01*
X167618Y348298D02*
X246583D01*
X167618Y365003D02*
X246583D01*
X167618Y381708D02*
X246583D01*
X167618Y398412D02*
X246583D01*
Y415117D02*
X246800Y414900D01*
X167618Y415117D02*
X246583D01*
D12*
X163500Y425549D02*
D03*
X190637Y301200D02*
D03*
X190637Y345287D02*
D03*
Y361992D02*
D03*
Y378696D02*
D03*
Y395401D02*
D03*
X190637Y401426D02*
D03*
X190637Y412104D02*
D03*
X190637Y418130D02*
D03*
X207341Y301200D02*
D03*
X207342Y345287D02*
D03*
Y361992D02*
D03*
Y378696D02*
D03*
Y395401D02*
D03*
X207341Y401426D02*
D03*
X207342Y412104D02*
D03*
X207341Y418130D02*
D03*
X224046Y301200D02*
D03*
X224047Y345287D02*
D03*
Y361992D02*
D03*
Y378696D02*
D03*
Y395401D02*
D03*
X224046Y401426D02*
D03*
X224047Y412104D02*
D03*
X224046Y418130D02*
D03*
X240751Y301200D02*
D03*
X240751Y345287D02*
D03*
Y361992D02*
D03*
Y378696D02*
D03*
Y395401D02*
D03*
X240751Y401426D02*
D03*
X240751Y412104D02*
D03*
X240751Y418130D02*
D03*
X248300Y377518D02*
D03*
Y394222D02*
D03*
Y410927D02*
D03*
X190637Y311877D02*
D03*
X190637Y317904D02*
D03*
X190637Y328582D02*
D03*
X190637Y334609D02*
D03*
Y351314D02*
D03*
Y368018D02*
D03*
Y384723D02*
D03*
X207342Y311877D02*
D03*
X207341Y317904D02*
D03*
X207342Y328582D02*
D03*
X207341Y334609D02*
D03*
Y351314D02*
D03*
Y368018D02*
D03*
Y384723D02*
D03*
X224047Y311877D02*
D03*
X224046Y317904D02*
D03*
X224047Y328582D02*
D03*
X224046Y334609D02*
D03*
Y351314D02*
D03*
Y368018D02*
D03*
Y384723D02*
D03*
X240751Y317904D02*
D03*
X240751Y311877D02*
D03*
X240751Y351314D02*
D03*
Y334609D02*
D03*
X240751Y328582D02*
D03*
X240751Y384723D02*
D03*
Y368018D02*
D03*
X248300Y293994D02*
D03*
Y310699D02*
D03*
Y327403D02*
D03*
Y344108D02*
D03*
Y360813D02*
D03*
X173932Y301200D02*
D03*
X173933Y345287D02*
D03*
Y361992D02*
D03*
Y378696D02*
D03*
Y395401D02*
D03*
X173932Y401426D02*
D03*
X173933Y412104D02*
D03*
X173932Y418130D02*
D03*
X173933Y311877D02*
D03*
X173932Y317904D02*
D03*
X173933Y328582D02*
D03*
X173932Y334609D02*
D03*
Y351314D02*
D03*
Y368018D02*
D03*
Y384723D02*
D03*
X173933Y295173D02*
D03*
X224047D02*
D03*
X207342D02*
D03*
X190637D02*
D03*
X240751Y293598D02*
D03*
M02*
