G04*
G04 #@! TF.GenerationSoftware,Altium Limited,Altium Designer,20.1.14 (287)*
G04*
G04 Layer_Color=8388736*
%FSLAX25Y25*%
%MOIN*%
G70*
G04*
G04 #@! TF.SameCoordinates,EDD9B4B2-C76D-452E-86CE-AE9E56570F27*
G04*
G04*
G04 #@! TF.FilePolarity,Negative*
G04*
G01*
G75*
%ADD10C,0.03200*%
D10*
X163500Y425549D02*
D03*
X190637Y301200D02*
D03*
X190637Y345287D02*
D03*
Y361992D02*
D03*
Y378696D02*
D03*
Y395401D02*
D03*
X190637Y401426D02*
D03*
X190637Y412104D02*
D03*
X190637Y418130D02*
D03*
X207341Y301200D02*
D03*
X207342Y345287D02*
D03*
Y361992D02*
D03*
Y378696D02*
D03*
Y395401D02*
D03*
X207341Y401426D02*
D03*
X207342Y412104D02*
D03*
X207341Y418130D02*
D03*
X224046Y301200D02*
D03*
X224047Y345287D02*
D03*
Y361992D02*
D03*
Y378696D02*
D03*
Y395401D02*
D03*
X224046Y401426D02*
D03*
X224047Y412104D02*
D03*
X224046Y418130D02*
D03*
X240751Y301200D02*
D03*
X240751Y345287D02*
D03*
Y361992D02*
D03*
Y378696D02*
D03*
Y395401D02*
D03*
X240751Y401426D02*
D03*
X240751Y412104D02*
D03*
X240751Y418130D02*
D03*
X248300Y377518D02*
D03*
Y394222D02*
D03*
Y410927D02*
D03*
X190637Y311877D02*
D03*
X190637Y317904D02*
D03*
X190637Y328582D02*
D03*
X190637Y334609D02*
D03*
Y351314D02*
D03*
Y368018D02*
D03*
Y384723D02*
D03*
X207342Y311877D02*
D03*
X207341Y317904D02*
D03*
X207342Y328582D02*
D03*
X207341Y334609D02*
D03*
Y351314D02*
D03*
Y368018D02*
D03*
Y384723D02*
D03*
X224047Y311877D02*
D03*
X224046Y317904D02*
D03*
X224047Y328582D02*
D03*
X224046Y334609D02*
D03*
Y351314D02*
D03*
Y368018D02*
D03*
Y384723D02*
D03*
X240751Y317904D02*
D03*
X240751Y311877D02*
D03*
X240751Y351314D02*
D03*
Y334609D02*
D03*
X240751Y328582D02*
D03*
X240751Y384723D02*
D03*
Y368018D02*
D03*
X248300Y293994D02*
D03*
Y310699D02*
D03*
Y327403D02*
D03*
Y344108D02*
D03*
Y360813D02*
D03*
X173932Y301200D02*
D03*
X173933Y345287D02*
D03*
Y361992D02*
D03*
Y378696D02*
D03*
Y395401D02*
D03*
X173932Y401426D02*
D03*
X173933Y412104D02*
D03*
X173932Y418130D02*
D03*
X173933Y311877D02*
D03*
X173932Y317904D02*
D03*
X173933Y328582D02*
D03*
X173932Y334609D02*
D03*
Y351314D02*
D03*
Y368018D02*
D03*
Y384723D02*
D03*
X173933Y295173D02*
D03*
X224047D02*
D03*
X207342D02*
D03*
X190637D02*
D03*
X240751Y293598D02*
D03*
M02*
