G04*
G04 #@! TF.GenerationSoftware,Altium Limited,Altium Designer,20.1.14 (287)*
G04*
G04 Layer_Physical_Order=4*
G04 Layer_Color=16711680*
%FSLAX25Y25*%
%MOIN*%
G70*
G04*
G04 #@! TF.SameCoordinates,EDD9B4B2-C76D-452E-86CE-AE9E56570F27*
G04*
G04*
G04 #@! TF.FilePolarity,Positive*
G04*
G01*
G75*
%ADD11C,0.00600*%
%ADD12C,0.02400*%
%ADD14C,0.01000*%
G36*
X249669Y388631D02*
X243372D01*
X242648Y388930D01*
X242094Y389484D01*
X241795Y390208D01*
Y390599D01*
Y390991D01*
X242094Y391714D01*
X242648Y392268D01*
X243372Y392567D01*
X243763D01*
X249669Y392567D01*
Y388631D01*
D02*
G37*
G36*
Y371926D02*
X243372D01*
X242648Y372225D01*
X242094Y372779D01*
X241795Y373503D01*
Y373894D01*
Y374286D01*
X242094Y375009D01*
X242648Y375563D01*
X243372Y375863D01*
X243763D01*
X249669Y375863D01*
Y371926D01*
D02*
G37*
G36*
Y355221D02*
X243372D01*
X242648Y355521D01*
X242094Y356075D01*
X241795Y356798D01*
Y357190D01*
Y357581D01*
X242094Y358305D01*
X242648Y358858D01*
X243372Y359158D01*
X243763D01*
X249669Y359158D01*
Y355221D01*
D02*
G37*
G36*
Y338516D02*
X243372D01*
X242648Y338816D01*
X242094Y339370D01*
X241795Y340093D01*
Y340485D01*
Y340876D01*
X242094Y341600D01*
X242648Y342154D01*
X243372Y342453D01*
X243763D01*
X249669Y342453D01*
Y338516D01*
D02*
G37*
G36*
Y321812D02*
X243372D01*
X242648Y322111D01*
X242094Y322665D01*
X241795Y323389D01*
Y323780D01*
Y324172D01*
X242094Y324895D01*
X242648Y325449D01*
X243372Y325749D01*
X243763D01*
X249669Y325749D01*
Y321812D01*
D02*
G37*
G36*
Y305107D02*
X243372D01*
X242648Y305407D01*
X242094Y305960D01*
X241795Y306684D01*
Y307075D01*
Y307467D01*
X242094Y308190D01*
X242648Y308744D01*
X243372Y309044D01*
X243763D01*
X249669Y309044D01*
Y305107D01*
D02*
G37*
G36*
Y295335D02*
X243372D01*
X242648Y295634D01*
X242094Y296188D01*
X241795Y296912D01*
Y297303D01*
Y297695D01*
X242094Y298418D01*
X242648Y298972D01*
X243372Y299272D01*
X243763D01*
X249669Y299272D01*
Y295335D01*
D02*
G37*
G36*
X242669Y418463D02*
Y418071D01*
X242369Y417347D01*
X241815Y416794D01*
X241092Y416494D01*
X240309D01*
X239585Y416794D01*
X239031Y417347D01*
X238732Y418071D01*
Y418463D01*
Y418854D01*
Y424368D01*
X242669D01*
X242669Y418463D01*
D02*
G37*
G36*
X225964D02*
Y418071D01*
X225664Y417347D01*
X225111Y416794D01*
X224387Y416494D01*
X223604D01*
X222881Y416794D01*
X222327Y417347D01*
X222027Y418071D01*
Y418463D01*
Y418854D01*
Y424368D01*
X225964D01*
X225964Y418463D01*
D02*
G37*
G36*
X209259D02*
Y418071D01*
X208960Y417347D01*
X208406Y416794D01*
X207682Y416494D01*
X206899D01*
X206176Y416794D01*
X205622Y417347D01*
X205322Y418071D01*
Y418463D01*
Y418854D01*
D01*
Y424368D01*
X209259D01*
X209259Y418463D01*
D02*
G37*
G36*
X192555D02*
Y418071D01*
X192255Y417347D01*
X191701Y416794D01*
X190978Y416494D01*
X190194D01*
X189471Y416794D01*
X188917Y417347D01*
X188618Y418071D01*
Y418463D01*
Y418854D01*
Y424368D01*
X192555D01*
X192555Y418463D01*
D02*
G37*
G36*
X175850D02*
Y418071D01*
X175550Y417347D01*
X174996Y416794D01*
X174273Y416494D01*
X173490D01*
X172766Y416794D01*
X172213Y417347D01*
X171913Y418071D01*
Y418463D01*
Y418854D01*
Y424368D01*
X175850D01*
X175850Y418463D01*
D02*
G37*
G36*
X249669Y405335D02*
X243372D01*
X242648Y405635D01*
X242094Y406189D01*
X241795Y406912D01*
Y407304D01*
Y407695D01*
X242094Y408419D01*
X242648Y408973D01*
X243372Y409272D01*
X243763D01*
X249669Y409272D01*
Y405335D01*
D02*
G37*
G36*
X170587Y408683D02*
X170978D01*
X171702Y408383D01*
X172255Y407830D01*
X172555Y407106D01*
Y406714D01*
Y406323D01*
X172255Y405599D01*
X171702Y405046D01*
X170978Y404746D01*
X164681D01*
Y408683D01*
X170587Y408683D01*
D02*
G37*
D11*
X248239Y308599D02*
Y310639D01*
X248300Y310699D01*
X246716Y307075D02*
X248239Y308599D01*
X248239Y325304D02*
Y327343D01*
X248300Y327403D01*
X246716Y323780D02*
X248239Y325304D01*
X248300Y340681D02*
Y344108D01*
Y374090D02*
Y377518D01*
Y357385D02*
Y360813D01*
Y391352D02*
Y394222D01*
Y408057D02*
Y410927D01*
Y293994D02*
Y296473D01*
X246716Y298057D02*
X248300Y296473D01*
D12*
X163500Y425549D02*
D03*
X190637Y301200D02*
D03*
X190637Y345287D02*
D03*
Y361992D02*
D03*
Y378696D02*
D03*
Y395401D02*
D03*
X190637Y401426D02*
D03*
X190637Y412104D02*
D03*
X190637Y418130D02*
D03*
X207341Y301200D02*
D03*
X207342Y345287D02*
D03*
Y361992D02*
D03*
Y378696D02*
D03*
Y395401D02*
D03*
X207341Y401426D02*
D03*
X207342Y412104D02*
D03*
X207341Y418130D02*
D03*
X224046Y301200D02*
D03*
X224047Y345287D02*
D03*
Y361992D02*
D03*
Y378696D02*
D03*
Y395401D02*
D03*
X224046Y401426D02*
D03*
X224047Y412104D02*
D03*
X224046Y418130D02*
D03*
X240751Y301200D02*
D03*
X240751Y345287D02*
D03*
Y361992D02*
D03*
Y378696D02*
D03*
Y395401D02*
D03*
X240751Y401426D02*
D03*
X240751Y412104D02*
D03*
X240751Y418130D02*
D03*
X248300Y377518D02*
D03*
Y394222D02*
D03*
Y410927D02*
D03*
X190637Y311877D02*
D03*
X190637Y317904D02*
D03*
X190637Y328582D02*
D03*
X190637Y334609D02*
D03*
Y351314D02*
D03*
Y368018D02*
D03*
Y384723D02*
D03*
X207342Y311877D02*
D03*
X207341Y317904D02*
D03*
X207342Y328582D02*
D03*
X207341Y334609D02*
D03*
Y351314D02*
D03*
Y368018D02*
D03*
Y384723D02*
D03*
X224047Y311877D02*
D03*
X224046Y317904D02*
D03*
X224047Y328582D02*
D03*
X224046Y334609D02*
D03*
Y351314D02*
D03*
Y368018D02*
D03*
Y384723D02*
D03*
X240751Y317904D02*
D03*
X240751Y311877D02*
D03*
X240751Y351314D02*
D03*
Y334609D02*
D03*
X240751Y328582D02*
D03*
X240751Y384723D02*
D03*
Y368018D02*
D03*
X248300Y293994D02*
D03*
Y310699D02*
D03*
Y327403D02*
D03*
Y344108D02*
D03*
Y360813D02*
D03*
X173932Y301200D02*
D03*
X173933Y345287D02*
D03*
Y361992D02*
D03*
Y378696D02*
D03*
Y395401D02*
D03*
X173932Y401426D02*
D03*
X173933Y412104D02*
D03*
X173932Y418130D02*
D03*
X173933Y311877D02*
D03*
X173932Y317904D02*
D03*
X173933Y328582D02*
D03*
X173932Y334609D02*
D03*
Y351314D02*
D03*
Y368018D02*
D03*
Y384723D02*
D03*
X173933Y295173D02*
D03*
X224047D02*
D03*
X207342D02*
D03*
X190637D02*
D03*
X240751Y293598D02*
D03*
D14*
X165614Y406910D02*
Y423435D01*
X163500Y425549D02*
X165614Y423435D01*
M02*
