G04*
G04 #@! TF.GenerationSoftware,Altium Limited,Altium Designer,20.1.14 (287)*
G04*
G04 Layer_Color=65535*
%FSLAX25Y25*%
%MOIN*%
G70*
G04*
G04 #@! TF.SameCoordinates,EDD9B4B2-C76D-452E-86CE-AE9E56570F27*
G04*
G04*
G04 #@! TF.FilePolarity,Positive*
G04*
G01*
G75*
G36*
X218215Y293528D02*
X218253D01*
X218359Y293517D01*
X218475Y293501D01*
X218598Y293473D01*
X218731Y293440D01*
X218853Y293395D01*
X218858D01*
X218869Y293390D01*
X218886Y293378D01*
X218908Y293367D01*
X218964Y293340D01*
X219036Y293290D01*
X219119Y293234D01*
X219202Y293162D01*
X219280Y293079D01*
X219352Y292984D01*
Y292979D01*
X219358Y292973D01*
X219369Y292957D01*
X219380Y292940D01*
X219408Y292884D01*
X219441Y292812D01*
X219480Y292724D01*
X219508Y292618D01*
X219535Y292507D01*
X219547Y292385D01*
X219058Y292346D01*
Y292352D01*
Y292363D01*
X219053Y292379D01*
X219047Y292407D01*
X219030Y292468D01*
X219008Y292551D01*
X218975Y292640D01*
X218925Y292729D01*
X218864Y292812D01*
X218786Y292890D01*
X218775Y292896D01*
X218747Y292918D01*
X218692Y292951D01*
X218620Y292984D01*
X218525Y293018D01*
X218414Y293051D01*
X218276Y293073D01*
X218120Y293079D01*
X218042D01*
X218009Y293073D01*
X217965Y293068D01*
X217865Y293057D01*
X217754Y293034D01*
X217643Y293007D01*
X217537Y292962D01*
X217493Y292934D01*
X217449Y292907D01*
X217438Y292901D01*
X217415Y292879D01*
X217382Y292840D01*
X217349Y292796D01*
X217310Y292735D01*
X217277Y292668D01*
X217254Y292590D01*
X217243Y292502D01*
Y292491D01*
Y292468D01*
X217249Y292429D01*
X217260Y292385D01*
X217277Y292330D01*
X217304Y292274D01*
X217338Y292218D01*
X217388Y292163D01*
X217393Y292158D01*
X217421Y292141D01*
X217443Y292124D01*
X217465Y292113D01*
X217499Y292096D01*
X217537Y292074D01*
X217587Y292058D01*
X217643Y292035D01*
X217704Y292013D01*
X217776Y291985D01*
X217854Y291963D01*
X217943Y291935D01*
X218042Y291913D01*
X218154Y291885D01*
X218159D01*
X218181Y291880D01*
X218215Y291874D01*
X218253Y291863D01*
X218303Y291852D01*
X218364Y291836D01*
X218425Y291819D01*
X218492Y291802D01*
X218636Y291763D01*
X218775Y291725D01*
X218842Y291702D01*
X218903Y291680D01*
X218958Y291664D01*
X219003Y291641D01*
X219008D01*
X219019Y291636D01*
X219036Y291625D01*
X219058Y291614D01*
X219119Y291580D01*
X219191Y291536D01*
X219275Y291475D01*
X219358Y291408D01*
X219436Y291331D01*
X219502Y291247D01*
X219508Y291236D01*
X219530Y291208D01*
X219552Y291159D01*
X219585Y291092D01*
X219613Y291014D01*
X219641Y290920D01*
X219657Y290814D01*
X219663Y290703D01*
Y290698D01*
Y290692D01*
Y290676D01*
Y290653D01*
X219652Y290592D01*
X219641Y290515D01*
X219619Y290426D01*
X219591Y290332D01*
X219547Y290232D01*
X219485Y290126D01*
Y290121D01*
X219480Y290115D01*
X219452Y290082D01*
X219413Y290032D01*
X219358Y289976D01*
X219286Y289910D01*
X219197Y289838D01*
X219097Y289771D01*
X218981Y289710D01*
X218975D01*
X218964Y289704D01*
X218947Y289699D01*
X218925Y289688D01*
X218892Y289677D01*
X218853Y289660D01*
X218764Y289638D01*
X218659Y289610D01*
X218531Y289582D01*
X218392Y289566D01*
X218242Y289560D01*
X218154D01*
X218109Y289566D01*
X218059D01*
X218004Y289571D01*
X217937Y289577D01*
X217798Y289599D01*
X217654Y289621D01*
X217510Y289660D01*
X217371Y289710D01*
X217365D01*
X217354Y289716D01*
X217338Y289727D01*
X217316Y289738D01*
X217249Y289771D01*
X217171Y289821D01*
X217082Y289887D01*
X216988Y289965D01*
X216899Y290060D01*
X216816Y290165D01*
Y290171D01*
X216805Y290182D01*
X216799Y290198D01*
X216783Y290220D01*
X216772Y290248D01*
X216755Y290282D01*
X216716Y290365D01*
X216677Y290470D01*
X216644Y290587D01*
X216622Y290720D01*
X216611Y290859D01*
X217088Y290903D01*
Y290898D01*
Y290892D01*
X217093Y290875D01*
Y290853D01*
X217105Y290803D01*
X217121Y290731D01*
X217143Y290659D01*
X217166Y290576D01*
X217204Y290498D01*
X217243Y290426D01*
X217249Y290420D01*
X217266Y290398D01*
X217293Y290359D01*
X217338Y290320D01*
X217393Y290270D01*
X217454Y290220D01*
X217537Y290171D01*
X217626Y290126D01*
X217632D01*
X217637Y290121D01*
X217654Y290115D01*
X217671Y290109D01*
X217726Y290093D01*
X217798Y290071D01*
X217887Y290049D01*
X217987Y290032D01*
X218098Y290021D01*
X218220Y290015D01*
X218270D01*
X218326Y290021D01*
X218392Y290026D01*
X218470Y290037D01*
X218559Y290049D01*
X218647Y290071D01*
X218731Y290098D01*
X218742Y290104D01*
X218770Y290115D01*
X218808Y290137D01*
X218858Y290160D01*
X218908Y290198D01*
X218964Y290237D01*
X219019Y290282D01*
X219064Y290337D01*
X219069Y290343D01*
X219080Y290365D01*
X219097Y290393D01*
X219119Y290437D01*
X219141Y290481D01*
X219158Y290537D01*
X219169Y290598D01*
X219175Y290665D01*
Y290670D01*
Y290698D01*
X219169Y290731D01*
X219164Y290775D01*
X219147Y290820D01*
X219130Y290875D01*
X219103Y290931D01*
X219064Y290981D01*
X219058Y290986D01*
X219041Y291003D01*
X219019Y291025D01*
X218981Y291059D01*
X218936Y291092D01*
X218875Y291131D01*
X218803Y291170D01*
X218720Y291203D01*
X218714Y291208D01*
X218686Y291214D01*
X218642Y291231D01*
X218614Y291236D01*
X218575Y291247D01*
X218536Y291264D01*
X218486Y291275D01*
X218431Y291292D01*
X218364Y291308D01*
X218298Y291325D01*
X218220Y291347D01*
X218131Y291369D01*
X218037Y291392D01*
X218031D01*
X218015Y291397D01*
X217987Y291403D01*
X217954Y291414D01*
X217909Y291425D01*
X217859Y291436D01*
X217748Y291469D01*
X217626Y291508D01*
X217499Y291547D01*
X217388Y291586D01*
X217338Y291608D01*
X217293Y291630D01*
X217288D01*
X217282Y291636D01*
X217249Y291658D01*
X217199Y291686D01*
X217143Y291730D01*
X217077Y291780D01*
X217010Y291841D01*
X216944Y291913D01*
X216888Y291991D01*
X216882Y292002D01*
X216866Y292030D01*
X216844Y292074D01*
X216822Y292130D01*
X216799Y292202D01*
X216777Y292285D01*
X216760Y292374D01*
X216755Y292468D01*
Y292474D01*
Y292479D01*
Y292496D01*
Y292518D01*
X216766Y292574D01*
X216777Y292646D01*
X216794Y292729D01*
X216822Y292824D01*
X216860Y292918D01*
X216916Y293012D01*
Y293018D01*
X216921Y293023D01*
X216949Y293057D01*
X216988Y293101D01*
X217038Y293157D01*
X217105Y293217D01*
X217188Y293284D01*
X217288Y293345D01*
X217399Y293401D01*
X217404D01*
X217415Y293406D01*
X217432Y293412D01*
X217454Y293423D01*
X217482Y293434D01*
X217521Y293445D01*
X217604Y293467D01*
X217709Y293490D01*
X217832Y293512D01*
X217959Y293528D01*
X218104Y293534D01*
X218176D01*
X218215Y293528D01*
D02*
G37*
G36*
X214663D02*
X214713Y293523D01*
X214774Y293517D01*
X214835Y293512D01*
X214907Y293495D01*
X215057Y293462D01*
X215223Y293412D01*
X215306Y293378D01*
X215384Y293340D01*
X215462Y293290D01*
X215539Y293240D01*
X215545Y293234D01*
X215556Y293229D01*
X215578Y293212D01*
X215606Y293184D01*
X215634Y293157D01*
X215673Y293118D01*
X215711Y293073D01*
X215756Y293029D01*
X215800Y292973D01*
X215845Y292907D01*
X215895Y292840D01*
X215939Y292768D01*
X215978Y292685D01*
X216022Y292601D01*
X216056Y292513D01*
X216089Y292413D01*
X215589Y292296D01*
Y292302D01*
X215584Y292313D01*
X215573Y292335D01*
X215562Y292363D01*
X215551Y292396D01*
X215534Y292441D01*
X215490Y292529D01*
X215434Y292629D01*
X215367Y292729D01*
X215284Y292824D01*
X215195Y292907D01*
X215184Y292918D01*
X215151Y292940D01*
X215095Y292968D01*
X215023Y293007D01*
X214929Y293040D01*
X214824Y293073D01*
X214696Y293095D01*
X214557Y293101D01*
X214513D01*
X214485Y293095D01*
X214446D01*
X214402Y293090D01*
X214296Y293073D01*
X214180Y293051D01*
X214058Y293012D01*
X213930Y292957D01*
X213813Y292884D01*
X213808D01*
X213802Y292873D01*
X213763Y292846D01*
X213714Y292801D01*
X213652Y292735D01*
X213580Y292651D01*
X213514Y292557D01*
X213453Y292441D01*
X213397Y292313D01*
Y292307D01*
X213392Y292296D01*
X213386Y292280D01*
X213381Y292252D01*
X213369Y292218D01*
X213358Y292180D01*
X213342Y292085D01*
X213319Y291974D01*
X213297Y291852D01*
X213286Y291719D01*
X213281Y291575D01*
Y291569D01*
Y291552D01*
Y291525D01*
Y291492D01*
X213286Y291453D01*
Y291403D01*
X213292Y291347D01*
X213297Y291286D01*
X213314Y291153D01*
X213342Y291009D01*
X213375Y290864D01*
X213419Y290720D01*
Y290715D01*
X213425Y290703D01*
X213436Y290687D01*
X213447Y290659D01*
X213480Y290592D01*
X213530Y290515D01*
X213591Y290426D01*
X213669Y290332D01*
X213758Y290248D01*
X213863Y290171D01*
X213869D01*
X213880Y290165D01*
X213897Y290154D01*
X213919Y290143D01*
X213947Y290132D01*
X213980Y290115D01*
X214058Y290082D01*
X214158Y290049D01*
X214268Y290021D01*
X214391Y289999D01*
X214518Y289993D01*
X214557D01*
X214590Y289999D01*
X214629D01*
X214668Y290004D01*
X214768Y290026D01*
X214884Y290054D01*
X215001Y290098D01*
X215123Y290160D01*
X215184Y290193D01*
X215240Y290237D01*
X215245Y290243D01*
X215251Y290248D01*
X215267Y290265D01*
X215290Y290282D01*
X215312Y290309D01*
X215340Y290343D01*
X215373Y290376D01*
X215401Y290420D01*
X215434Y290470D01*
X215473Y290526D01*
X215506Y290581D01*
X215539Y290648D01*
X215567Y290720D01*
X215595Y290798D01*
X215623Y290881D01*
X215645Y290970D01*
X216156Y290842D01*
Y290837D01*
X216150Y290814D01*
X216139Y290781D01*
X216122Y290737D01*
X216106Y290687D01*
X216083Y290626D01*
X216056Y290559D01*
X216022Y290487D01*
X215945Y290332D01*
X215845Y290176D01*
X215784Y290098D01*
X215723Y290021D01*
X215656Y289954D01*
X215578Y289887D01*
X215573Y289882D01*
X215562Y289871D01*
X215534Y289860D01*
X215506Y289838D01*
X215462Y289810D01*
X215417Y289782D01*
X215356Y289754D01*
X215295Y289727D01*
X215223Y289693D01*
X215145Y289666D01*
X215062Y289638D01*
X214973Y289610D01*
X214879Y289588D01*
X214779Y289577D01*
X214674Y289566D01*
X214563Y289560D01*
X214502D01*
X214457Y289566D01*
X214407D01*
X214346Y289571D01*
X214280Y289582D01*
X214202Y289593D01*
X214041Y289621D01*
X213874Y289666D01*
X213708Y289727D01*
X213630Y289765D01*
X213553Y289810D01*
X213547Y289815D01*
X213536Y289821D01*
X213514Y289838D01*
X213492Y289860D01*
X213458Y289882D01*
X213419Y289915D01*
X213375Y289954D01*
X213331Y289999D01*
X213286Y290049D01*
X213236Y290098D01*
X213136Y290226D01*
X213042Y290376D01*
X212959Y290542D01*
Y290548D01*
X212948Y290565D01*
X212942Y290592D01*
X212925Y290626D01*
X212914Y290670D01*
X212898Y290726D01*
X212876Y290787D01*
X212859Y290853D01*
X212842Y290925D01*
X212820Y291009D01*
X212792Y291181D01*
X212770Y291375D01*
X212759Y291575D01*
Y291580D01*
Y291602D01*
Y291636D01*
X212764Y291675D01*
Y291730D01*
X212770Y291786D01*
X212776Y291858D01*
X212787Y291930D01*
X212814Y292091D01*
X212853Y292268D01*
X212909Y292446D01*
X212986Y292618D01*
X212992Y292624D01*
X212998Y292640D01*
X213009Y292663D01*
X213031Y292690D01*
X213053Y292729D01*
X213081Y292774D01*
X213153Y292873D01*
X213247Y292984D01*
X213358Y293095D01*
X213486Y293206D01*
X213636Y293301D01*
X213641Y293306D01*
X213658Y293312D01*
X213680Y293323D01*
X213708Y293340D01*
X213752Y293356D01*
X213797Y293373D01*
X213852Y293395D01*
X213913Y293417D01*
X213980Y293440D01*
X214052Y293462D01*
X214208Y293495D01*
X214385Y293523D01*
X214568Y293534D01*
X214624D01*
X214663Y293528D01*
D02*
G37*
G36*
X185531Y289627D02*
X185092D01*
Y289976D01*
X185087Y289971D01*
X185081Y289960D01*
X185064Y289937D01*
X185042Y289910D01*
X185014Y289882D01*
X184981Y289849D01*
X184942Y289810D01*
X184892Y289771D01*
X184842Y289732D01*
X184787Y289693D01*
X184720Y289660D01*
X184648Y289632D01*
X184576Y289604D01*
X184493Y289582D01*
X184404Y289571D01*
X184310Y289566D01*
X184276D01*
X184254Y289571D01*
X184187Y289577D01*
X184110Y289588D01*
X184016Y289610D01*
X183910Y289643D01*
X183805Y289688D01*
X183699Y289749D01*
X183694D01*
X183688Y289760D01*
X183655Y289782D01*
X183605Y289826D01*
X183544Y289882D01*
X183472Y289954D01*
X183399Y290043D01*
X183327Y290143D01*
X183266Y290259D01*
Y290265D01*
X183261Y290276D01*
X183255Y290293D01*
X183244Y290315D01*
X183233Y290348D01*
X183216Y290387D01*
X183205Y290426D01*
X183194Y290476D01*
X183166Y290587D01*
X183139Y290714D01*
X183122Y290859D01*
X183116Y291014D01*
Y291020D01*
Y291031D01*
Y291053D01*
Y291086D01*
X183122Y291120D01*
Y291164D01*
X183133Y291264D01*
X183150Y291381D01*
X183177Y291508D01*
X183211Y291641D01*
X183255Y291769D01*
Y291775D01*
X183261Y291786D01*
X183272Y291802D01*
X183283Y291824D01*
X183316Y291885D01*
X183361Y291963D01*
X183416Y292046D01*
X183488Y292130D01*
X183572Y292218D01*
X183671Y292291D01*
X183677D01*
X183682Y292296D01*
X183699Y292307D01*
X183721Y292318D01*
X183777Y292346D01*
X183854Y292385D01*
X183943Y292418D01*
X184049Y292446D01*
X184165Y292468D01*
X184287Y292474D01*
X184332D01*
X184376Y292468D01*
X184437Y292463D01*
X184509Y292446D01*
X184587Y292429D01*
X184665Y292402D01*
X184737Y292363D01*
X184748Y292357D01*
X184770Y292346D01*
X184803Y292318D01*
X184848Y292291D01*
X184903Y292252D01*
X184953Y292202D01*
X185009Y292152D01*
X185059Y292091D01*
Y293467D01*
X185531D01*
Y289627D01*
D02*
G37*
G36*
X193362Y292468D02*
X193423Y292457D01*
X193495Y292435D01*
X193573Y292407D01*
X193661Y292368D01*
X193756Y292318D01*
X193584Y291885D01*
X193578Y291891D01*
X193556Y291902D01*
X193523Y291919D01*
X193478Y291935D01*
X193428Y291952D01*
X193367Y291969D01*
X193306Y291980D01*
X193245Y291985D01*
X193217D01*
X193190Y291980D01*
X193151Y291974D01*
X193112Y291963D01*
X193062Y291947D01*
X193012Y291924D01*
X192968Y291891D01*
X192962Y291885D01*
X192945Y291874D01*
X192929Y291852D01*
X192901Y291824D01*
X192873Y291786D01*
X192845Y291741D01*
X192818Y291691D01*
X192796Y291630D01*
X192790Y291619D01*
X192784Y291586D01*
X192773Y291536D01*
X192757Y291469D01*
X192740Y291386D01*
X192729Y291292D01*
X192723Y291192D01*
X192718Y291081D01*
Y289627D01*
X192246D01*
Y292413D01*
X192674D01*
Y291991D01*
X192679Y291997D01*
X192701Y292035D01*
X192729Y292085D01*
X192773Y292146D01*
X192818Y292207D01*
X192868Y292274D01*
X192918Y292330D01*
X192968Y292374D01*
X192973Y292379D01*
X192990Y292390D01*
X193023Y292407D01*
X193056Y292424D01*
X193101Y292441D01*
X193156Y292457D01*
X193212Y292468D01*
X193273Y292474D01*
X193312D01*
X193362Y292468D01*
D02*
G37*
G36*
X175363Y289627D02*
X174875D01*
Y292840D01*
X173753Y289627D01*
X173298D01*
X172188Y292896D01*
Y289627D01*
X171700D01*
Y293467D01*
X172460D01*
X173371Y290742D01*
Y290737D01*
X173376Y290726D01*
X173382Y290709D01*
X173393Y290681D01*
X173415Y290615D01*
X173443Y290531D01*
X173470Y290437D01*
X173504Y290343D01*
X173531Y290254D01*
X173554Y290176D01*
X173559Y290187D01*
X173565Y290215D01*
X173581Y290265D01*
X173604Y290332D01*
X173631Y290420D01*
X173670Y290526D01*
X173709Y290648D01*
X173759Y290792D01*
X174680Y293467D01*
X175363D01*
Y289627D01*
D02*
G37*
G36*
X207203Y289582D02*
Y289577D01*
X207198Y289560D01*
X207187Y289538D01*
X207176Y289510D01*
X207159Y289471D01*
X207142Y289427D01*
X207103Y289333D01*
X207065Y289227D01*
X207020Y289122D01*
X206976Y289027D01*
X206954Y288988D01*
X206937Y288950D01*
X206931Y288938D01*
X206915Y288911D01*
X206887Y288872D01*
X206854Y288822D01*
X206809Y288766D01*
X206759Y288711D01*
X206709Y288655D01*
X206648Y288611D01*
X206643Y288605D01*
X206621Y288594D01*
X206587Y288578D01*
X206537Y288556D01*
X206482Y288533D01*
X206415Y288517D01*
X206343Y288506D01*
X206260Y288500D01*
X206238D01*
X206210Y288506D01*
X206171D01*
X206127Y288517D01*
X206077Y288528D01*
X206021Y288539D01*
X205960Y288561D01*
X205910Y289000D01*
X205916D01*
X205938Y288994D01*
X205966Y288988D01*
X205999Y288977D01*
X206088Y288961D01*
X206177Y288955D01*
X206204D01*
X206232Y288961D01*
X206265D01*
X206349Y288977D01*
X206387Y288994D01*
X206426Y289011D01*
X206432D01*
X206443Y289022D01*
X206460Y289033D01*
X206482Y289050D01*
X206532Y289094D01*
X206576Y289155D01*
Y289160D01*
X206587Y289172D01*
X206598Y289194D01*
X206610Y289227D01*
X206632Y289271D01*
X206654Y289338D01*
X206687Y289416D01*
X206720Y289510D01*
Y289516D01*
X206732Y289538D01*
X206743Y289577D01*
X206765Y289627D01*
X205710Y292413D01*
X206210D01*
X206793Y290798D01*
Y290792D01*
X206798Y290787D01*
X206804Y290770D01*
X206809Y290742D01*
X206820Y290715D01*
X206832Y290681D01*
X206859Y290603D01*
X206892Y290509D01*
X206926Y290398D01*
X206959Y290282D01*
X206993Y290154D01*
Y290160D01*
X206998Y290171D01*
X207003Y290187D01*
X207009Y290209D01*
X207015Y290237D01*
X207026Y290270D01*
X207048Y290354D01*
X207076Y290448D01*
X207115Y290559D01*
X207148Y290670D01*
X207192Y290787D01*
X207792Y292413D01*
X208263D01*
X207203Y289582D01*
D02*
G37*
G36*
X212076Y290848D02*
Y290842D01*
Y290826D01*
Y290803D01*
Y290770D01*
X212071Y290726D01*
Y290681D01*
X212060Y290576D01*
X212049Y290454D01*
X212026Y290326D01*
X211993Y290209D01*
X211954Y290098D01*
Y290093D01*
X211949Y290087D01*
X211932Y290054D01*
X211904Y290010D01*
X211865Y289949D01*
X211810Y289887D01*
X211749Y289821D01*
X211671Y289754D01*
X211582Y289699D01*
X211571Y289693D01*
X211538Y289677D01*
X211488Y289654D01*
X211416Y289632D01*
X211327Y289604D01*
X211227Y289582D01*
X211116Y289566D01*
X210994Y289560D01*
X210944D01*
X210911Y289566D01*
X210866Y289571D01*
X210822Y289577D01*
X210705Y289599D01*
X210583Y289632D01*
X210456Y289682D01*
X210389Y289716D01*
X210328Y289754D01*
X210273Y289799D01*
X210217Y289849D01*
X210211Y289854D01*
X210206Y289860D01*
X210195Y289882D01*
X210178Y289904D01*
X210156Y289932D01*
X210134Y289971D01*
X210111Y290015D01*
X210084Y290065D01*
X210062Y290121D01*
X210039Y290187D01*
X210017Y290254D01*
X209995Y290332D01*
X209984Y290415D01*
X209967Y290509D01*
X209962Y290603D01*
Y290709D01*
X210422Y290775D01*
Y290770D01*
Y290759D01*
Y290737D01*
X210428Y290703D01*
X210433Y290670D01*
Y290631D01*
X210450Y290537D01*
X210467Y290437D01*
X210500Y290337D01*
X210533Y290248D01*
X210556Y290209D01*
X210583Y290176D01*
X210589Y290171D01*
X210611Y290154D01*
X210644Y290126D01*
X210689Y290098D01*
X210750Y290065D01*
X210816Y290043D01*
X210900Y290021D01*
X210988Y290015D01*
X211022D01*
X211055Y290021D01*
X211105Y290026D01*
X211155Y290037D01*
X211210Y290049D01*
X211266Y290071D01*
X211321Y290098D01*
X211327Y290104D01*
X211344Y290115D01*
X211366Y290137D01*
X211399Y290160D01*
X211427Y290198D01*
X211460Y290237D01*
X211488Y290282D01*
X211510Y290337D01*
Y290343D01*
X211521Y290365D01*
X211527Y290404D01*
X211538Y290454D01*
X211549Y290520D01*
X211555Y290603D01*
X211566Y290703D01*
Y290820D01*
Y293467D01*
X212076D01*
Y290848D01*
D02*
G37*
G36*
X178377Y289627D02*
X177955D01*
Y290032D01*
X177949Y290026D01*
X177938Y290010D01*
X177922Y289987D01*
X177894Y289960D01*
X177860Y289926D01*
X177822Y289882D01*
X177777Y289843D01*
X177722Y289799D01*
X177661Y289754D01*
X177594Y289716D01*
X177522Y289677D01*
X177444Y289638D01*
X177355Y289610D01*
X177267Y289588D01*
X177167Y289571D01*
X177067Y289566D01*
X177028D01*
X176978Y289571D01*
X176917Y289577D01*
X176845Y289588D01*
X176767Y289604D01*
X176690Y289627D01*
X176606Y289660D01*
X176595Y289666D01*
X176573Y289677D01*
X176534Y289699D01*
X176490Y289726D01*
X176434Y289760D01*
X176384Y289799D01*
X176334Y289843D01*
X176290Y289893D01*
X176284Y289899D01*
X176273Y289921D01*
X176257Y289949D01*
X176234Y289993D01*
X176207Y290043D01*
X176184Y290104D01*
X176162Y290171D01*
X176146Y290243D01*
Y290248D01*
X176140Y290270D01*
X176134Y290304D01*
Y290348D01*
X176129Y290415D01*
X176123Y290487D01*
X176118Y290581D01*
Y290687D01*
Y292413D01*
X176590D01*
Y290864D01*
Y290859D01*
Y290848D01*
Y290831D01*
Y290803D01*
Y290742D01*
X176595Y290665D01*
Y290581D01*
X176601Y290498D01*
X176606Y290426D01*
X176617Y290365D01*
Y290359D01*
X176628Y290337D01*
X176639Y290304D01*
X176656Y290259D01*
X176684Y290215D01*
X176717Y290165D01*
X176756Y290121D01*
X176806Y290076D01*
X176812Y290071D01*
X176834Y290059D01*
X176862Y290043D01*
X176906Y290026D01*
X176956Y290004D01*
X177017Y289987D01*
X177084Y289976D01*
X177161Y289971D01*
X177200D01*
X177239Y289976D01*
X177289Y289982D01*
X177350Y289999D01*
X177417Y290015D01*
X177489Y290043D01*
X177561Y290076D01*
X177572Y290082D01*
X177594Y290098D01*
X177627Y290121D01*
X177666Y290154D01*
X177711Y290198D01*
X177755Y290248D01*
X177794Y290304D01*
X177827Y290370D01*
X177833Y290381D01*
X177838Y290404D01*
X177849Y290448D01*
X177866Y290509D01*
X177883Y290587D01*
X177894Y290681D01*
X177899Y290792D01*
X177905Y290920D01*
Y292413D01*
X178377D01*
Y289627D01*
D02*
G37*
G36*
X221889Y293462D02*
X221933D01*
X222033Y293451D01*
X222144Y293440D01*
X222260Y293417D01*
X222377Y293390D01*
X222482Y293351D01*
X222488D01*
X222494Y293345D01*
X222527Y293328D01*
X222577Y293301D01*
X222632Y293262D01*
X222699Y293212D01*
X222771Y293151D01*
X222838Y293073D01*
X222899Y292990D01*
X222904Y292979D01*
X222921Y292946D01*
X222949Y292901D01*
X222976Y292835D01*
X223004Y292757D01*
X223032Y292674D01*
X223049Y292579D01*
X223054Y292485D01*
Y292474D01*
Y292446D01*
X223049Y292396D01*
X223038Y292335D01*
X223021Y292263D01*
X222993Y292185D01*
X222960Y292108D01*
X222915Y292024D01*
X222910Y292013D01*
X222893Y291991D01*
X222860Y291947D01*
X222815Y291902D01*
X222760Y291847D01*
X222693Y291786D01*
X222610Y291730D01*
X222516Y291675D01*
X222521D01*
X222533Y291669D01*
X222549Y291664D01*
X222571Y291652D01*
X222638Y291630D01*
X222716Y291591D01*
X222799Y291541D01*
X222893Y291480D01*
X222976Y291408D01*
X223054Y291319D01*
X223060Y291308D01*
X223082Y291275D01*
X223115Y291225D01*
X223148Y291159D01*
X223182Y291070D01*
X223215Y290975D01*
X223237Y290864D01*
X223243Y290742D01*
Y290737D01*
Y290731D01*
Y290698D01*
X223237Y290642D01*
X223226Y290576D01*
X223215Y290498D01*
X223193Y290415D01*
X223165Y290326D01*
X223126Y290237D01*
X223121Y290226D01*
X223104Y290198D01*
X223082Y290160D01*
X223049Y290104D01*
X223004Y290049D01*
X222960Y289987D01*
X222904Y289926D01*
X222843Y289876D01*
X222838Y289871D01*
X222815Y289854D01*
X222777Y289832D01*
X222727Y289810D01*
X222666Y289776D01*
X222593Y289743D01*
X222516Y289716D01*
X222422Y289688D01*
X222410D01*
X222377Y289677D01*
X222322Y289671D01*
X222249Y289660D01*
X222161Y289649D01*
X222055Y289638D01*
X221939Y289632D01*
X221805Y289627D01*
X220340D01*
Y293467D01*
X221850D01*
X221889Y293462D01*
D02*
G37*
G36*
X195337Y292468D02*
X195421Y292463D01*
X195515Y292452D01*
X195609Y292435D01*
X195704Y292413D01*
X195793Y292385D01*
X195804Y292379D01*
X195831Y292368D01*
X195870Y292352D01*
X195920Y292330D01*
X195976Y292296D01*
X196031Y292263D01*
X196081Y292218D01*
X196125Y292174D01*
X196131Y292169D01*
X196142Y292152D01*
X196159Y292124D01*
X196181Y292091D01*
X196209Y292041D01*
X196231Y291991D01*
X196253Y291930D01*
X196270Y291858D01*
Y291852D01*
X196275Y291836D01*
X196281Y291802D01*
X196286Y291758D01*
Y291697D01*
X196292Y291625D01*
X196298Y291530D01*
Y291425D01*
Y290792D01*
Y290787D01*
Y290764D01*
Y290731D01*
Y290687D01*
Y290637D01*
Y290576D01*
X196303Y290442D01*
Y290304D01*
X196309Y290165D01*
X196314Y290104D01*
Y290049D01*
X196320Y289999D01*
X196325Y289960D01*
Y289954D01*
X196331Y289932D01*
X196336Y289899D01*
X196353Y289854D01*
X196364Y289804D01*
X196386Y289749D01*
X196414Y289688D01*
X196442Y289627D01*
X195948D01*
X195942Y289632D01*
X195937Y289654D01*
X195926Y289682D01*
X195909Y289726D01*
X195893Y289776D01*
X195881Y289838D01*
X195870Y289904D01*
X195859Y289976D01*
X195854D01*
X195848Y289965D01*
X195815Y289937D01*
X195765Y289899D01*
X195698Y289849D01*
X195615Y289799D01*
X195532Y289743D01*
X195443Y289693D01*
X195349Y289654D01*
X195337Y289649D01*
X195304Y289643D01*
X195254Y289627D01*
X195193Y289610D01*
X195115Y289593D01*
X195027Y289582D01*
X194927Y289571D01*
X194827Y289566D01*
X194782D01*
X194749Y289571D01*
X194710D01*
X194666Y289577D01*
X194566Y289593D01*
X194455Y289621D01*
X194333Y289660D01*
X194222Y289716D01*
X194122Y289788D01*
X194111Y289799D01*
X194083Y289826D01*
X194044Y289876D01*
X194000Y289943D01*
X193956Y290026D01*
X193917Y290121D01*
X193889Y290237D01*
X193883Y290293D01*
X193878Y290359D01*
Y290370D01*
Y290392D01*
X193883Y290431D01*
X193889Y290481D01*
X193900Y290542D01*
X193917Y290603D01*
X193939Y290670D01*
X193967Y290731D01*
X193972Y290737D01*
X193983Y290759D01*
X194005Y290792D01*
X194033Y290831D01*
X194067Y290875D01*
X194111Y290920D01*
X194155Y290964D01*
X194211Y291003D01*
X194216Y291009D01*
X194239Y291020D01*
X194266Y291042D01*
X194311Y291064D01*
X194361Y291086D01*
X194422Y291114D01*
X194483Y291136D01*
X194555Y291158D01*
X194560D01*
X194583Y291164D01*
X194616Y291175D01*
X194660Y291181D01*
X194716Y291192D01*
X194788Y291203D01*
X194871Y291219D01*
X194971Y291231D01*
X194977D01*
X194999Y291236D01*
X195027D01*
X195065Y291242D01*
X195110Y291247D01*
X195165Y291258D01*
X195226Y291264D01*
X195293Y291275D01*
X195426Y291303D01*
X195571Y291331D01*
X195698Y291364D01*
X195759Y291381D01*
X195815Y291397D01*
Y291403D01*
Y291414D01*
X195820Y291447D01*
Y291486D01*
Y291508D01*
Y291519D01*
Y291525D01*
Y291530D01*
Y291564D01*
X195815Y291619D01*
X195804Y291680D01*
X195787Y291747D01*
X195759Y291813D01*
X195726Y291874D01*
X195682Y291924D01*
X195676Y291930D01*
X195648Y291952D01*
X195604Y291974D01*
X195548Y292008D01*
X195471Y292035D01*
X195382Y292063D01*
X195271Y292080D01*
X195143Y292085D01*
X195088D01*
X195032Y292080D01*
X194955Y292069D01*
X194877Y292057D01*
X194794Y292035D01*
X194716Y292008D01*
X194649Y291969D01*
X194644Y291963D01*
X194622Y291947D01*
X194594Y291919D01*
X194560Y291874D01*
X194527Y291819D01*
X194488Y291747D01*
X194455Y291658D01*
X194422Y291558D01*
X193961Y291619D01*
Y291625D01*
X193967Y291630D01*
Y291647D01*
X193972Y291669D01*
X193989Y291719D01*
X194011Y291791D01*
X194039Y291863D01*
X194072Y291941D01*
X194116Y292019D01*
X194166Y292091D01*
X194172Y292096D01*
X194194Y292119D01*
X194227Y292152D01*
X194272Y292196D01*
X194333Y292241D01*
X194405Y292285D01*
X194488Y292335D01*
X194583Y292374D01*
X194588D01*
X194594Y292379D01*
X194610Y292385D01*
X194633Y292390D01*
X194688Y292407D01*
X194766Y292424D01*
X194855Y292441D01*
X194966Y292457D01*
X195082Y292468D01*
X195215Y292474D01*
X195276D01*
X195337Y292468D01*
D02*
G37*
G36*
X190565D02*
X190648Y292463D01*
X190742Y292452D01*
X190836Y292435D01*
X190931Y292413D01*
X191020Y292385D01*
X191031Y292379D01*
X191058Y292368D01*
X191097Y292352D01*
X191147Y292330D01*
X191203Y292296D01*
X191258Y292263D01*
X191308Y292218D01*
X191352Y292174D01*
X191358Y292169D01*
X191369Y292152D01*
X191386Y292124D01*
X191408Y292091D01*
X191436Y292041D01*
X191458Y291991D01*
X191480Y291930D01*
X191497Y291858D01*
Y291852D01*
X191502Y291836D01*
X191508Y291802D01*
X191514Y291758D01*
Y291697D01*
X191519Y291625D01*
X191525Y291530D01*
Y291425D01*
Y290792D01*
Y290787D01*
Y290764D01*
Y290731D01*
Y290687D01*
Y290637D01*
Y290576D01*
X191530Y290442D01*
Y290304D01*
X191536Y290165D01*
X191541Y290104D01*
Y290049D01*
X191547Y289999D01*
X191552Y289960D01*
Y289954D01*
X191558Y289932D01*
X191563Y289899D01*
X191580Y289854D01*
X191591Y289804D01*
X191613Y289749D01*
X191641Y289688D01*
X191669Y289627D01*
X191175D01*
X191169Y289632D01*
X191164Y289654D01*
X191153Y289682D01*
X191136Y289726D01*
X191120Y289776D01*
X191108Y289838D01*
X191097Y289904D01*
X191086Y289976D01*
X191081D01*
X191075Y289965D01*
X191042Y289937D01*
X190992Y289899D01*
X190925Y289849D01*
X190842Y289799D01*
X190759Y289743D01*
X190670Y289693D01*
X190576Y289654D01*
X190565Y289649D01*
X190531Y289643D01*
X190481Y289627D01*
X190420Y289610D01*
X190342Y289593D01*
X190254Y289582D01*
X190154Y289571D01*
X190054Y289566D01*
X190009D01*
X189976Y289571D01*
X189937D01*
X189893Y289577D01*
X189793Y289593D01*
X189682Y289621D01*
X189560Y289660D01*
X189449Y289716D01*
X189349Y289788D01*
X189338Y289799D01*
X189310Y289826D01*
X189271Y289876D01*
X189227Y289943D01*
X189182Y290026D01*
X189144Y290121D01*
X189116Y290237D01*
X189110Y290293D01*
X189105Y290359D01*
Y290370D01*
Y290392D01*
X189110Y290431D01*
X189116Y290481D01*
X189127Y290542D01*
X189144Y290603D01*
X189166Y290670D01*
X189194Y290731D01*
X189199Y290737D01*
X189210Y290759D01*
X189232Y290792D01*
X189260Y290831D01*
X189294Y290875D01*
X189338Y290920D01*
X189382Y290964D01*
X189438Y291003D01*
X189443Y291009D01*
X189466Y291020D01*
X189493Y291042D01*
X189538Y291064D01*
X189588Y291086D01*
X189649Y291114D01*
X189710Y291136D01*
X189782Y291158D01*
X189787D01*
X189810Y291164D01*
X189843Y291175D01*
X189887Y291181D01*
X189943Y291192D01*
X190015Y291203D01*
X190098Y291219D01*
X190198Y291231D01*
X190204D01*
X190226Y291236D01*
X190254D01*
X190293Y291242D01*
X190337Y291247D01*
X190392Y291258D01*
X190453Y291264D01*
X190520Y291275D01*
X190653Y291303D01*
X190798Y291331D01*
X190925Y291364D01*
X190986Y291381D01*
X191042Y291397D01*
Y291403D01*
Y291414D01*
X191047Y291447D01*
Y291486D01*
Y291508D01*
Y291519D01*
Y291525D01*
Y291530D01*
Y291564D01*
X191042Y291619D01*
X191031Y291680D01*
X191014Y291747D01*
X190986Y291813D01*
X190953Y291874D01*
X190909Y291924D01*
X190903Y291930D01*
X190875Y291952D01*
X190831Y291974D01*
X190775Y292008D01*
X190698Y292035D01*
X190609Y292063D01*
X190498Y292080D01*
X190370Y292085D01*
X190315D01*
X190259Y292080D01*
X190182Y292069D01*
X190104Y292057D01*
X190021Y292035D01*
X189943Y292008D01*
X189876Y291969D01*
X189871Y291963D01*
X189848Y291947D01*
X189821Y291919D01*
X189787Y291874D01*
X189754Y291819D01*
X189715Y291747D01*
X189682Y291658D01*
X189649Y291558D01*
X189188Y291619D01*
Y291625D01*
X189194Y291630D01*
Y291647D01*
X189199Y291669D01*
X189216Y291719D01*
X189238Y291791D01*
X189266Y291863D01*
X189299Y291941D01*
X189344Y292019D01*
X189393Y292091D01*
X189399Y292096D01*
X189421Y292119D01*
X189454Y292152D01*
X189499Y292196D01*
X189560Y292241D01*
X189632Y292285D01*
X189715Y292335D01*
X189810Y292374D01*
X189815D01*
X189821Y292379D01*
X189837Y292385D01*
X189860Y292390D01*
X189915Y292407D01*
X189993Y292424D01*
X190082Y292441D01*
X190193Y292457D01*
X190309Y292468D01*
X190442Y292474D01*
X190503D01*
X190565Y292468D01*
D02*
G37*
G36*
X186752Y292091D02*
X186757Y292096D01*
X186768Y292108D01*
X186785Y292124D01*
X186813Y292152D01*
X186840Y292180D01*
X186879Y292213D01*
X186929Y292246D01*
X186979Y292285D01*
X187035Y292318D01*
X187096Y292352D01*
X187240Y292413D01*
X187318Y292441D01*
X187401Y292457D01*
X187490Y292468D01*
X187578Y292474D01*
X187628D01*
X187690Y292468D01*
X187762Y292457D01*
X187845Y292446D01*
X187934Y292424D01*
X188023Y292390D01*
X188111Y292352D01*
X188122Y292346D01*
X188150Y292330D01*
X188189Y292302D01*
X188239Y292263D01*
X188289Y292213D01*
X188345Y292158D01*
X188394Y292091D01*
X188439Y292013D01*
X188444Y292002D01*
X188455Y291974D01*
X188472Y291924D01*
X188489Y291852D01*
X188505Y291763D01*
X188522Y291658D01*
X188533Y291530D01*
X188539Y291386D01*
Y289627D01*
X188067D01*
Y291392D01*
Y291397D01*
Y291408D01*
Y291425D01*
Y291447D01*
X188061Y291508D01*
X188050Y291586D01*
X188028Y291669D01*
X188000Y291752D01*
X187961Y291836D01*
X187912Y291902D01*
X187906Y291908D01*
X187884Y291930D01*
X187850Y291958D01*
X187801Y291985D01*
X187740Y292019D01*
X187667Y292041D01*
X187578Y292063D01*
X187479Y292069D01*
X187445D01*
X187407Y292063D01*
X187351Y292057D01*
X187295Y292041D01*
X187229Y292024D01*
X187162Y291997D01*
X187090Y291958D01*
X187085Y291952D01*
X187062Y291935D01*
X187029Y291913D01*
X186990Y291880D01*
X186946Y291836D01*
X186901Y291786D01*
X186863Y291724D01*
X186829Y291658D01*
X186824Y291647D01*
X186818Y291625D01*
X186807Y291580D01*
X186791Y291525D01*
X186774Y291453D01*
X186763Y291364D01*
X186757Y291264D01*
X186752Y291147D01*
Y289627D01*
X186280D01*
Y293467D01*
X186752D01*
Y292091D01*
D02*
G37*
G36*
X181607Y292468D02*
X181690Y292463D01*
X181784Y292452D01*
X181879Y292435D01*
X181973Y292413D01*
X182062Y292385D01*
X182073Y292379D01*
X182101Y292368D01*
X182140Y292352D01*
X182190Y292330D01*
X182245Y292296D01*
X182300Y292263D01*
X182351Y292218D01*
X182395Y292174D01*
X182400Y292169D01*
X182412Y292152D01*
X182428Y292124D01*
X182450Y292091D01*
X182478Y292041D01*
X182500Y291991D01*
X182522Y291930D01*
X182539Y291858D01*
Y291852D01*
X182545Y291836D01*
X182550Y291802D01*
X182556Y291758D01*
Y291697D01*
X182561Y291625D01*
X182567Y291530D01*
Y291425D01*
Y290792D01*
Y290787D01*
Y290764D01*
Y290731D01*
Y290687D01*
Y290637D01*
Y290576D01*
X182572Y290442D01*
Y290304D01*
X182578Y290165D01*
X182583Y290104D01*
Y290049D01*
X182589Y289999D01*
X182595Y289960D01*
Y289954D01*
X182600Y289932D01*
X182606Y289899D01*
X182622Y289854D01*
X182633Y289804D01*
X182656Y289749D01*
X182683Y289688D01*
X182711Y289627D01*
X182217D01*
X182212Y289632D01*
X182206Y289654D01*
X182195Y289682D01*
X182178Y289726D01*
X182162Y289776D01*
X182151Y289838D01*
X182140Y289904D01*
X182128Y289976D01*
X182123D01*
X182117Y289965D01*
X182084Y289937D01*
X182034Y289899D01*
X181967Y289849D01*
X181884Y289799D01*
X181801Y289743D01*
X181712Y289693D01*
X181618Y289654D01*
X181607Y289649D01*
X181573Y289643D01*
X181524Y289627D01*
X181462Y289610D01*
X181385Y289593D01*
X181296Y289582D01*
X181196Y289571D01*
X181096Y289566D01*
X181052D01*
X181018Y289571D01*
X180980D01*
X180935Y289577D01*
X180835Y289593D01*
X180724Y289621D01*
X180602Y289660D01*
X180491Y289716D01*
X180391Y289788D01*
X180380Y289799D01*
X180352Y289826D01*
X180314Y289876D01*
X180269Y289943D01*
X180225Y290026D01*
X180186Y290121D01*
X180158Y290237D01*
X180153Y290293D01*
X180147Y290359D01*
Y290370D01*
Y290392D01*
X180153Y290431D01*
X180158Y290481D01*
X180169Y290542D01*
X180186Y290603D01*
X180208Y290670D01*
X180236Y290731D01*
X180242Y290737D01*
X180253Y290759D01*
X180275Y290792D01*
X180303Y290831D01*
X180336Y290875D01*
X180380Y290920D01*
X180425Y290964D01*
X180480Y291003D01*
X180486Y291009D01*
X180508Y291020D01*
X180536Y291042D01*
X180580Y291064D01*
X180630Y291086D01*
X180691Y291114D01*
X180752Y291136D01*
X180824Y291158D01*
X180830D01*
X180852Y291164D01*
X180885Y291175D01*
X180930Y291181D01*
X180985Y291192D01*
X181057Y291203D01*
X181141Y291219D01*
X181240Y291231D01*
X181246D01*
X181268Y291236D01*
X181296D01*
X181335Y291242D01*
X181379Y291247D01*
X181435Y291258D01*
X181496Y291264D01*
X181562Y291275D01*
X181696Y291303D01*
X181840Y291331D01*
X181967Y291364D01*
X182028Y291381D01*
X182084Y291397D01*
Y291403D01*
Y291414D01*
X182090Y291447D01*
Y291486D01*
Y291508D01*
Y291519D01*
Y291525D01*
Y291530D01*
Y291564D01*
X182084Y291619D01*
X182073Y291680D01*
X182056Y291747D01*
X182028Y291813D01*
X181995Y291874D01*
X181951Y291924D01*
X181945Y291930D01*
X181918Y291952D01*
X181873Y291974D01*
X181818Y292008D01*
X181740Y292035D01*
X181651Y292063D01*
X181540Y292080D01*
X181412Y292085D01*
X181357D01*
X181301Y292080D01*
X181224Y292069D01*
X181146Y292057D01*
X181063Y292035D01*
X180985Y292008D01*
X180919Y291969D01*
X180913Y291963D01*
X180891Y291947D01*
X180863Y291919D01*
X180830Y291874D01*
X180797Y291819D01*
X180758Y291747D01*
X180724Y291658D01*
X180691Y291558D01*
X180230Y291619D01*
Y291625D01*
X180236Y291630D01*
Y291647D01*
X180242Y291669D01*
X180258Y291719D01*
X180280Y291791D01*
X180308Y291863D01*
X180341Y291941D01*
X180386Y292019D01*
X180436Y292091D01*
X180441Y292096D01*
X180463Y292119D01*
X180497Y292152D01*
X180541Y292196D01*
X180602Y292241D01*
X180674Y292285D01*
X180758Y292335D01*
X180852Y292374D01*
X180858D01*
X180863Y292379D01*
X180880Y292385D01*
X180902Y292390D01*
X180957Y292407D01*
X181035Y292424D01*
X181124Y292441D01*
X181235Y292457D01*
X181351Y292468D01*
X181485Y292474D01*
X181546D01*
X181607Y292468D01*
D02*
G37*
G36*
X179576Y289627D02*
X179104D01*
Y293467D01*
X179576D01*
Y289627D01*
D02*
G37*
G36*
X203457Y292096D02*
X203463Y292102D01*
X203468Y292113D01*
X203485Y292130D01*
X203513Y292158D01*
X203540Y292185D01*
X203574Y292218D01*
X203618Y292252D01*
X203662Y292285D01*
X203773Y292357D01*
X203901Y292413D01*
X203973Y292441D01*
X204051Y292457D01*
X204134Y292468D01*
X204218Y292474D01*
X204262D01*
X204312Y292468D01*
X204373Y292463D01*
X204445Y292446D01*
X204528Y292429D01*
X204617Y292402D01*
X204700Y292368D01*
X204711Y292363D01*
X204739Y292352D01*
X204784Y292324D01*
X204834Y292291D01*
X204894Y292252D01*
X204956Y292202D01*
X205022Y292141D01*
X205078Y292074D01*
X205083Y292069D01*
X205100Y292041D01*
X205128Y292002D01*
X205161Y291952D01*
X205200Y291885D01*
X205239Y291808D01*
X205277Y291719D01*
X205311Y291625D01*
Y291619D01*
X205316Y291614D01*
X205322Y291597D01*
X205327Y291580D01*
X205339Y291525D01*
X205355Y291453D01*
X205372Y291369D01*
X205388Y291275D01*
X205394Y291170D01*
X205400Y291059D01*
Y291053D01*
Y291025D01*
Y290992D01*
X205394Y290942D01*
X205388Y290881D01*
X205383Y290814D01*
X205372Y290737D01*
X205355Y290653D01*
X205311Y290476D01*
X205283Y290382D01*
X205250Y290293D01*
X205211Y290198D01*
X205161Y290115D01*
X205105Y290032D01*
X205044Y289954D01*
X205039Y289949D01*
X205028Y289937D01*
X205011Y289921D01*
X204983Y289893D01*
X204944Y289865D01*
X204906Y289832D01*
X204861Y289799D01*
X204806Y289760D01*
X204745Y289727D01*
X204684Y289688D01*
X204534Y289627D01*
X204456Y289599D01*
X204373Y289582D01*
X204284Y289571D01*
X204195Y289566D01*
X204173D01*
X204145Y289571D01*
X204112D01*
X204073Y289577D01*
X204023Y289588D01*
X203912Y289616D01*
X203851Y289638D01*
X203790Y289666D01*
X203724Y289699D01*
X203662Y289738D01*
X203596Y289788D01*
X203535Y289843D01*
X203479Y289904D01*
X203424Y289976D01*
Y289627D01*
X202985D01*
Y293467D01*
X203457D01*
Y292096D01*
D02*
G37*
%LPC*%
G36*
X184337Y292085D02*
X184310D01*
X184287Y292080D01*
X184226Y292074D01*
X184154Y292052D01*
X184071Y292024D01*
X183982Y291974D01*
X183893Y291913D01*
X183849Y291869D01*
X183810Y291824D01*
Y291819D01*
X183799Y291813D01*
X183793Y291797D01*
X183777Y291775D01*
X183760Y291747D01*
X183744Y291714D01*
X183727Y291675D01*
X183705Y291630D01*
X183682Y291575D01*
X183666Y291514D01*
X183649Y291447D01*
X183633Y291375D01*
X183621Y291297D01*
X183610Y291208D01*
X183599Y291114D01*
Y291014D01*
Y291009D01*
Y290992D01*
Y290964D01*
X183605Y290925D01*
Y290881D01*
X183610Y290831D01*
X183627Y290714D01*
X183655Y290587D01*
X183694Y290454D01*
X183749Y290326D01*
X183782Y290270D01*
X183821Y290215D01*
X183827D01*
X183832Y290204D01*
X183860Y290176D01*
X183910Y290132D01*
X183971Y290087D01*
X184049Y290037D01*
X184143Y289993D01*
X184243Y289965D01*
X184299Y289960D01*
X184354Y289954D01*
X184382D01*
X184404Y289960D01*
X184465Y289965D01*
X184537Y289987D01*
X184620Y290015D01*
X184709Y290059D01*
X184798Y290121D01*
X184842Y290160D01*
X184881Y290204D01*
Y290209D01*
X184892Y290215D01*
X184903Y290232D01*
X184915Y290254D01*
X184931Y290282D01*
X184953Y290309D01*
X184970Y290354D01*
X184992Y290398D01*
X185014Y290448D01*
X185031Y290504D01*
X185053Y290570D01*
X185070Y290637D01*
X185081Y290714D01*
X185092Y290792D01*
X185103Y290881D01*
Y290975D01*
Y290981D01*
Y291003D01*
Y291031D01*
X185098Y291070D01*
Y291114D01*
X185092Y291170D01*
X185087Y291231D01*
X185075Y291297D01*
X185048Y291430D01*
X185009Y291569D01*
X184953Y291702D01*
X184920Y291758D01*
X184881Y291813D01*
Y291819D01*
X184870Y291824D01*
X184842Y291858D01*
X184792Y291902D01*
X184731Y291952D01*
X184654Y292002D01*
X184559Y292041D01*
X184454Y292074D01*
X184398Y292080D01*
X184337Y292085D01*
D02*
G37*
G36*
X221761Y293012D02*
X220851D01*
Y291858D01*
X221794D01*
X221866Y291863D01*
X221944Y291869D01*
X222022Y291874D01*
X222099Y291885D01*
X222161Y291897D01*
X222172Y291902D01*
X222194Y291908D01*
X222227Y291924D01*
X222272Y291947D01*
X222316Y291969D01*
X222366Y292002D01*
X222416Y292046D01*
X222455Y292091D01*
X222460Y292096D01*
X222471Y292113D01*
X222488Y292146D01*
X222505Y292185D01*
X222521Y292230D01*
X222538Y292285D01*
X222549Y292352D01*
X222555Y292424D01*
Y292435D01*
Y292457D01*
X222549Y292491D01*
X222544Y292535D01*
X222533Y292590D01*
X222516Y292646D01*
X222494Y292701D01*
X222460Y292757D01*
X222455Y292762D01*
X222444Y292779D01*
X222422Y292807D01*
X222394Y292835D01*
X222355Y292868D01*
X222310Y292901D01*
X222255Y292934D01*
X222194Y292957D01*
X222188D01*
X222161Y292968D01*
X222122Y292973D01*
X222061Y292984D01*
X221977Y292996D01*
X221883Y293001D01*
X221761Y293012D01*
D02*
G37*
G36*
X221861Y291403D02*
X220851D01*
Y290082D01*
X221944D01*
X222061Y290087D01*
X222111Y290093D01*
X222155Y290098D01*
X222161D01*
X222183Y290104D01*
X222216Y290109D01*
X222255Y290121D01*
X222349Y290154D01*
X222444Y290198D01*
X222449Y290204D01*
X222466Y290215D01*
X222488Y290232D01*
X222516Y290254D01*
X222544Y290287D01*
X222582Y290320D01*
X222610Y290365D01*
X222643Y290415D01*
X222649Y290420D01*
X222655Y290437D01*
X222666Y290470D01*
X222682Y290509D01*
X222699Y290553D01*
X222710Y290609D01*
X222716Y290676D01*
X222721Y290742D01*
Y290753D01*
Y290775D01*
X222716Y290820D01*
X222705Y290870D01*
X222693Y290925D01*
X222671Y290986D01*
X222643Y291048D01*
X222605Y291108D01*
X222599Y291114D01*
X222582Y291136D01*
X222560Y291164D01*
X222527Y291197D01*
X222482Y291236D01*
X222427Y291275D01*
X222366Y291308D01*
X222294Y291336D01*
X222283Y291342D01*
X222260Y291347D01*
X222211Y291358D01*
X222149Y291369D01*
X222072Y291381D01*
X221977Y291392D01*
X221861Y291403D01*
D02*
G37*
G36*
X195820Y291025D02*
X195815D01*
X195809Y291020D01*
X195793Y291014D01*
X195770Y291009D01*
X195743Y290998D01*
X195709Y290986D01*
X195670Y290975D01*
X195626Y290964D01*
X195576Y290948D01*
X195515Y290936D01*
X195454Y290920D01*
X195382Y290903D01*
X195304Y290886D01*
X195226Y290870D01*
X195138Y290859D01*
X195043Y290842D01*
X195032D01*
X194999Y290837D01*
X194943Y290826D01*
X194882Y290814D01*
X194816Y290803D01*
X194749Y290787D01*
X194688Y290770D01*
X194633Y290748D01*
X194627D01*
X194610Y290737D01*
X194588Y290726D01*
X194566Y290709D01*
X194499Y290665D01*
X194444Y290598D01*
Y290592D01*
X194433Y290581D01*
X194427Y290559D01*
X194416Y290531D01*
X194405Y290498D01*
X194394Y290465D01*
X194388Y290420D01*
X194383Y290376D01*
Y290370D01*
Y290343D01*
X194388Y290309D01*
X194399Y290265D01*
X194416Y290215D01*
X194444Y290165D01*
X194477Y290109D01*
X194522Y290059D01*
X194527Y290054D01*
X194549Y290043D01*
X194583Y290021D01*
X194627Y289999D01*
X194688Y289976D01*
X194760Y289954D01*
X194843Y289943D01*
X194943Y289937D01*
X194988D01*
X195043Y289943D01*
X195104Y289954D01*
X195182Y289965D01*
X195260Y289987D01*
X195343Y290015D01*
X195426Y290054D01*
X195437Y290059D01*
X195459Y290076D01*
X195498Y290104D01*
X195543Y290143D01*
X195593Y290187D01*
X195648Y290243D01*
X195693Y290309D01*
X195737Y290381D01*
X195743Y290387D01*
X195748Y290409D01*
X195759Y290448D01*
X195776Y290498D01*
X195793Y290565D01*
X195804Y290642D01*
X195809Y290737D01*
X195815Y290848D01*
X195820Y291025D01*
D02*
G37*
G36*
X191047D02*
X191042D01*
X191036Y291020D01*
X191020Y291014D01*
X190997Y291009D01*
X190970Y290998D01*
X190936Y290986D01*
X190898Y290975D01*
X190853Y290964D01*
X190803Y290948D01*
X190742Y290936D01*
X190681Y290920D01*
X190609Y290903D01*
X190531Y290886D01*
X190453Y290870D01*
X190365Y290859D01*
X190270Y290842D01*
X190259D01*
X190226Y290837D01*
X190170Y290826D01*
X190109Y290814D01*
X190043Y290803D01*
X189976Y290787D01*
X189915Y290770D01*
X189860Y290748D01*
X189854D01*
X189837Y290737D01*
X189815Y290726D01*
X189793Y290709D01*
X189726Y290665D01*
X189671Y290598D01*
Y290592D01*
X189660Y290581D01*
X189654Y290559D01*
X189643Y290531D01*
X189632Y290498D01*
X189621Y290465D01*
X189615Y290420D01*
X189610Y290376D01*
Y290370D01*
Y290343D01*
X189615Y290309D01*
X189627Y290265D01*
X189643Y290215D01*
X189671Y290165D01*
X189704Y290109D01*
X189749Y290059D01*
X189754Y290054D01*
X189776Y290043D01*
X189810Y290021D01*
X189854Y289999D01*
X189915Y289976D01*
X189987Y289954D01*
X190070Y289943D01*
X190170Y289937D01*
X190215D01*
X190270Y289943D01*
X190331Y289954D01*
X190409Y289965D01*
X190487Y289987D01*
X190570Y290015D01*
X190653Y290054D01*
X190664Y290059D01*
X190687Y290076D01*
X190725Y290104D01*
X190770Y290143D01*
X190820Y290187D01*
X190875Y290243D01*
X190920Y290309D01*
X190964Y290381D01*
X190970Y290387D01*
X190975Y290409D01*
X190986Y290448D01*
X191003Y290498D01*
X191020Y290565D01*
X191031Y290642D01*
X191036Y290737D01*
X191042Y290848D01*
X191047Y291025D01*
D02*
G37*
G36*
X182090D02*
X182084D01*
X182079Y291020D01*
X182062Y291014D01*
X182040Y291009D01*
X182012Y290998D01*
X181979Y290986D01*
X181940Y290975D01*
X181895Y290964D01*
X181845Y290948D01*
X181784Y290936D01*
X181723Y290920D01*
X181651Y290903D01*
X181573Y290886D01*
X181496Y290870D01*
X181407Y290859D01*
X181313Y290842D01*
X181301D01*
X181268Y290837D01*
X181213Y290826D01*
X181152Y290814D01*
X181085Y290803D01*
X181018Y290787D01*
X180957Y290770D01*
X180902Y290748D01*
X180896D01*
X180880Y290737D01*
X180858Y290726D01*
X180835Y290709D01*
X180769Y290665D01*
X180713Y290598D01*
Y290592D01*
X180702Y290581D01*
X180697Y290559D01*
X180685Y290531D01*
X180674Y290498D01*
X180663Y290465D01*
X180658Y290420D01*
X180652Y290376D01*
Y290370D01*
Y290343D01*
X180658Y290309D01*
X180669Y290265D01*
X180685Y290215D01*
X180713Y290165D01*
X180746Y290109D01*
X180791Y290059D01*
X180797Y290054D01*
X180819Y290043D01*
X180852Y290021D01*
X180896Y289999D01*
X180957Y289976D01*
X181029Y289954D01*
X181113Y289943D01*
X181213Y289937D01*
X181257D01*
X181313Y289943D01*
X181374Y289954D01*
X181451Y289965D01*
X181529Y289987D01*
X181612Y290015D01*
X181696Y290054D01*
X181707Y290059D01*
X181729Y290076D01*
X181768Y290104D01*
X181812Y290143D01*
X181862Y290187D01*
X181918Y290243D01*
X181962Y290309D01*
X182006Y290381D01*
X182012Y290387D01*
X182018Y290409D01*
X182028Y290448D01*
X182045Y290498D01*
X182062Y290565D01*
X182073Y290642D01*
X182079Y290737D01*
X182084Y290848D01*
X182090Y291025D01*
D02*
G37*
G36*
X204228Y292085D02*
X204145D01*
X204123Y292080D01*
X204062Y292069D01*
X203990Y292052D01*
X203907Y292019D01*
X203818Y291969D01*
X203773Y291941D01*
X203729Y291902D01*
X203685Y291863D01*
X203640Y291813D01*
Y291808D01*
X203629Y291802D01*
X203618Y291786D01*
X203607Y291763D01*
X203590Y291736D01*
X203568Y291702D01*
X203551Y291664D01*
X203529Y291619D01*
X203507Y291564D01*
X203490Y291508D01*
X203468Y291441D01*
X203451Y291375D01*
X203440Y291297D01*
X203429Y291214D01*
X203418Y291131D01*
Y291036D01*
Y291031D01*
Y291014D01*
Y290986D01*
Y290953D01*
X203424Y290914D01*
Y290864D01*
X203435Y290759D01*
X203451Y290642D01*
X203474Y290520D01*
X203507Y290409D01*
X203529Y290359D01*
X203551Y290315D01*
Y290309D01*
X203563Y290298D01*
X203574Y290282D01*
X203590Y290259D01*
X203640Y290198D01*
X203712Y290137D01*
X203796Y290071D01*
X203901Y290010D01*
X203957Y289987D01*
X204023Y289971D01*
X204084Y289960D01*
X204156Y289954D01*
X204184D01*
X204206Y289960D01*
X204267Y289971D01*
X204340Y289987D01*
X204423Y290021D01*
X204512Y290065D01*
X204600Y290132D01*
X204645Y290176D01*
X204689Y290220D01*
Y290226D01*
X204700Y290232D01*
X204711Y290248D01*
X204722Y290270D01*
X204745Y290298D01*
X204761Y290332D01*
X204784Y290376D01*
X204806Y290420D01*
X204822Y290476D01*
X204845Y290531D01*
X204867Y290598D01*
X204883Y290670D01*
X204894Y290748D01*
X204906Y290831D01*
X204917Y290925D01*
Y291020D01*
Y291025D01*
Y291042D01*
Y291070D01*
X204911Y291108D01*
Y291153D01*
X204906Y291208D01*
X204889Y291325D01*
X204867Y291453D01*
X204828Y291591D01*
X204772Y291714D01*
X204739Y291775D01*
X204700Y291825D01*
Y291830D01*
X204689Y291836D01*
X204661Y291863D01*
X204617Y291908D01*
X204556Y291958D01*
X204478Y292002D01*
X204390Y292046D01*
X204284Y292074D01*
X204228Y292085D01*
D02*
G37*
%LPD*%
M02*
