G04*
G04 #@! TF.GenerationSoftware,Altium Limited,Altium Designer,20.1.14 (287)*
G04*
G04 Layer_Physical_Order=2*
G04 Layer_Color=36540*
%FSLAX25Y25*%
%MOIN*%
G70*
G04*
G04 #@! TF.SameCoordinates,EDD9B4B2-C76D-452E-86CE-AE9E56570F27*
G04*
G04*
G04 #@! TF.FilePolarity,Positive*
G04*
G01*
G75*
%ADD11C,0.00600*%
%ADD12C,0.02400*%
%ADD13C,0.00700*%
%ADD14C,0.01000*%
D11*
X173932Y418130D02*
X173932Y418129D01*
Y412105D02*
Y418129D01*
Y412105D02*
X173933Y412104D01*
X190637Y412105D02*
X190637Y412104D01*
X190637Y412105D02*
Y418129D01*
X190637Y418130D02*
X190637Y418129D01*
X207342Y412105D02*
X207342Y412104D01*
X207342Y412105D02*
Y418129D01*
X207341Y418130D02*
X207342Y418129D01*
X224046Y412105D02*
X224047Y412104D01*
X224046Y412105D02*
Y418129D01*
X224046Y418130D02*
X224046Y418129D01*
X240751Y412105D02*
X240751Y412104D01*
X240751Y412105D02*
Y418129D01*
X240751Y418130D02*
X240751Y418129D01*
D12*
X190637Y301200D02*
D03*
X190637Y345287D02*
D03*
Y361992D02*
D03*
Y378696D02*
D03*
Y395401D02*
D03*
X190637Y401426D02*
D03*
X190637Y412104D02*
D03*
X190637Y418130D02*
D03*
X207341Y301200D02*
D03*
X207342Y345287D02*
D03*
Y361992D02*
D03*
Y378696D02*
D03*
Y395401D02*
D03*
X207341Y401426D02*
D03*
X207342Y412104D02*
D03*
X207341Y418130D02*
D03*
X224046Y301200D02*
D03*
X224047Y345287D02*
D03*
Y361992D02*
D03*
Y378696D02*
D03*
Y395401D02*
D03*
X224046Y401426D02*
D03*
X224047Y412104D02*
D03*
X224046Y418130D02*
D03*
X240751Y301200D02*
D03*
X240751Y345287D02*
D03*
Y361992D02*
D03*
Y378696D02*
D03*
Y395401D02*
D03*
X240751Y401426D02*
D03*
X240751Y412104D02*
D03*
X240751Y418130D02*
D03*
X190637Y311877D02*
D03*
X190637Y317904D02*
D03*
X190637Y328582D02*
D03*
X190637Y334609D02*
D03*
Y351314D02*
D03*
Y368018D02*
D03*
Y384723D02*
D03*
X207342Y311877D02*
D03*
X207341Y317904D02*
D03*
X207342Y328582D02*
D03*
X207341Y334609D02*
D03*
Y351314D02*
D03*
Y368018D02*
D03*
Y384723D02*
D03*
X224047Y311877D02*
D03*
X224046Y317904D02*
D03*
X224047Y328582D02*
D03*
X224046Y334609D02*
D03*
Y351314D02*
D03*
Y368018D02*
D03*
Y384723D02*
D03*
X240751Y317904D02*
D03*
X240751Y311877D02*
D03*
X240751Y351314D02*
D03*
Y334609D02*
D03*
X240751Y328582D02*
D03*
X240751Y384723D02*
D03*
Y368018D02*
D03*
X173932Y301200D02*
D03*
X173933Y345287D02*
D03*
Y361992D02*
D03*
Y378696D02*
D03*
Y395401D02*
D03*
X173932Y401426D02*
D03*
X173933Y412104D02*
D03*
X173932Y418130D02*
D03*
X173933Y311877D02*
D03*
X173932Y317904D02*
D03*
X173933Y328582D02*
D03*
X173932Y334609D02*
D03*
Y351314D02*
D03*
Y368018D02*
D03*
Y384723D02*
D03*
X173933Y295173D02*
D03*
X224047D02*
D03*
X207342D02*
D03*
X190637D02*
D03*
X240751Y293598D02*
D03*
D13*
X190638Y401426D02*
Y402050D01*
X190638Y395401D02*
X190638Y401426D01*
X190638Y394873D02*
Y395401D01*
Y378247D02*
Y385424D01*
Y395401D02*
Y402050D01*
Y361621D02*
Y368798D01*
Y344917D02*
Y352172D01*
Y328582D02*
Y335467D01*
Y328212D02*
Y328582D01*
Y311507D02*
Y318763D01*
Y294802D02*
Y301200D01*
X173933Y294802D02*
X173933Y294803D01*
Y302058D02*
X173934Y302058D01*
X173933Y318762D02*
X173934Y318763D01*
X173933Y328211D02*
X173933Y328212D01*
X173933Y344916D02*
X173933Y344917D01*
Y352172D02*
X173934Y352172D01*
X173933Y361621D02*
X173933Y361621D01*
Y368798D02*
X173934Y368798D01*
X173933Y378247D02*
X173933Y378247D01*
Y385424D02*
X173934Y385424D01*
X173933Y394873D02*
X173933Y394873D01*
Y402050D02*
X173934Y402050D01*
X173933Y411499D02*
X173933Y411499D01*
X190638Y328211D02*
X190638Y328212D01*
X190638Y344916D02*
X190638Y344917D01*
Y352172D02*
X190639Y352172D01*
X190638Y361621D02*
X190638Y361621D01*
Y368798D02*
X190639Y368798D01*
X190638Y378247D02*
X190638Y378247D01*
Y385424D02*
X190639Y385424D01*
X224047Y411499D02*
X224048Y411499D01*
X240752Y411499D02*
X240752Y411499D01*
X173933Y294803D02*
Y302058D01*
Y311507D02*
Y318762D01*
X173933Y311507D02*
X173933Y311507D01*
Y328212D02*
Y335467D01*
Y344917D02*
Y352172D01*
Y335467D02*
X173934Y335467D01*
X173933Y361621D02*
Y368798D01*
Y378247D02*
Y385424D01*
Y394873D02*
Y402050D01*
X190638Y335467D02*
X190639Y335467D01*
X207343Y294802D02*
Y302058D01*
Y311507D02*
Y318763D01*
Y344916D02*
Y352172D01*
Y328211D02*
Y335467D01*
Y378247D02*
Y385503D01*
Y361621D02*
Y368877D01*
Y394873D02*
Y402129D01*
X224048Y294802D02*
Y302058D01*
Y311507D02*
Y318763D01*
Y328211D02*
Y335467D01*
Y344916D02*
Y352172D01*
Y378247D02*
Y385503D01*
Y361621D02*
Y368877D01*
Y394873D02*
Y402129D01*
X240751Y293598D02*
Y300854D01*
X240752Y311507D02*
Y318763D01*
Y328211D02*
Y335467D01*
Y344916D02*
Y352172D01*
Y378247D02*
Y385503D01*
Y361621D02*
Y368877D01*
Y394873D02*
Y402129D01*
X173931Y418735D02*
X173931Y418735D01*
X190636Y418735D02*
X190636Y418735D01*
X240750Y418735D02*
X240750Y418735D01*
D14*
X190638Y411499D02*
X190638Y411499D01*
X207343Y411499D02*
X207343Y411499D01*
X207340Y418735D02*
X207341Y418735D01*
X224045Y418735D02*
X224045Y418735D01*
M02*
